<svg xmlns="http://www.w3.org/2000/svg" version="1.1" width="953" height="923" preserveAspectRatio="none" style="stroke-width: 2px; font-size: 11px; font-family: sans-serif; shape-rendering: crispedges;" id="SVG" viewBox="-20 -47 1109.9000244140625 997"><rect id="backgroundRect" x="-20" y="-47" width="1109.9000244140625" height="997" fill="white"></rect><path d="M 953 923 H 818.2050919377652 V 865.3125" fill="none" stroke="black" stroke-width="2" class="treeEdge" vector-effect="non-scaling-stroke" id="node#8"></path><path d="M 953 807.625 H 818.2050919377652 V 865.3125" fill="none" stroke="black" stroke-width="2" class="treeEdge" vector-effect="non-scaling-stroke" id="node#9"></path><path d="M 953 692.25 H 548.6152758132956 V 778.78125" fill="none" stroke="black" stroke-width="2" class="treeEdge" vector-effect="non-scaling-stroke" id="node#5"></path><path d="M 953 461.5 H 750.8076379066478 V 461.5" fill="none" stroke="black" stroke-width="2" class="treeEdge" vector-effect="non-scaling-stroke" id="node#14"></path><path d="M 953 346.125 H 683.4101838755304 V 403.8125" fill="none" stroke="black" stroke-width="2" class="treeEdge" vector-effect="non-scaling-stroke" id="node#12"></path><path d="M 953 115.375 H 818.2050919377652 V 57.6875" fill="none" stroke="black" stroke-width="2" class="treeEdge" vector-effect="non-scaling-stroke" id="node#17"></path><path d="M 953 0 H 818.2050919377652 V 57.6875" fill="none" stroke="black" stroke-width="2" class="treeEdge" vector-effect="non-scaling-stroke" id="node#18"></path><path d="M 818.2050919377652 865.3125 H 616.012729844413 V 865.3125" fill="none" stroke="black" stroke-width="2" class="treeEdge" vector-effect="non-scaling-stroke" id="node#7"></path><path d="M 616.012729844413 865.3125 H 548.6152758132956 V 778.78125" fill="none" stroke="black" stroke-width="2" class="treeEdge" vector-effect="non-scaling-stroke" id="node#6"></path><path d="M 548.6152758132956 778.78125 H 413.8203677510608 V 677.828125" fill="none" stroke="black" stroke-width="2" class="treeEdge" vector-effect="non-scaling-stroke" id="node#4"></path><path d="M 413.8203677510608 677.828125 H 279.025459688826 V 540.8203125" fill="none" stroke="black" stroke-width="2" class="treeEdge" vector-effect="non-scaling-stroke" id="node#3"></path><path d="M 750.8076379066478 461.5 H 683.4101838755304 V 403.8125" fill="none" stroke="black" stroke-width="2" class="treeEdge" vector-effect="non-scaling-stroke" id="node#13"></path><path d="M 683.4101838755304 403.8125 H 279.025459688826 V 540.8203125" fill="none" stroke="black" stroke-width="2" class="treeEdge" vector-effect="non-scaling-stroke" id="node#11"></path><path d="M 279.025459688826 540.8203125 H 144.23055162659125 V 385.78515625" fill="none" stroke="black" stroke-width="2" class="treeEdge" vector-effect="non-scaling-stroke" id="node#2"></path><path d="M 144.23055162659125 385.78515625 H 9.435643564356443 V 221.736328125" fill="none" stroke="black" stroke-width="2" class="treeEdge" vector-effect="non-scaling-stroke" id="node#1"></path><path d="M 818.2050919377652 57.6875 H 9.435643564356443 V 221.736328125" fill="none" stroke="black" stroke-width="2" class="treeEdge" vector-effect="non-scaling-stroke" id="node#16"></path><path d="M 9.435643564356443 221.736328125 H 0 V 221.736328125" fill="none" stroke="black" stroke-width="2" class="treeEdge" vector-effect="non-scaling-stroke" id="node#0"></path><path d="M 616.012729844413 865.3125 L 616.012729844413 576.875 H 413.8203677510608 V 677.828125" fill="none" stroke="black" stroke-width="2" class="treeEdge" vector-effect="non-scaling-stroke" stroke-dasharray="6, 2" id="node#10"></path><ellipse cx="616.012729844413" cy="865.3125" rx="3.1818502182803314" ry="2.9510884671139443" shape-rendering="auto" fill="black" class="nodeMark"></ellipse><path d="M 750.8076379066478 461.5 L 750.8076379066478 230.75 H 144.23055162659125 V 385.78515625" fill="none" stroke="black" stroke-width="2" class="treeEdge" vector-effect="non-scaling-stroke" stroke-dasharray="6, 2" id="node#15"></path><ellipse cx="750.8076379066478" cy="461.5" rx="3.1818502182803314" ry="2.9510884671139443" shape-rendering="auto" fill="black" class="nodeMark"></ellipse><text x="953" y="923" dominant-baseline="central" transform="matrix(1.16464, 0, 0, 1.08017, 0, 0) matrix(1, 0, 0, 1, -134.72, -68.5075)">SM023</text><text x="953" y="807.625" dominant-baseline="central" transform="matrix(1.16464, 0, 0, 1.08017, 0, 0) matrix(1, 0, 0, 1, -134.72, -59.9441)">K22</text><text x="953" y="692.25" dominant-baseline="central" transform="matrix(1.16464, 0, 0, 1.08017, 0, 0) matrix(1, 0, 0, 1, -134.72, -51.3806)">MN2</text><text x="953" y="461.5" dominant-baseline="central" transform="matrix(1.16464, 0, 0, 1.08017, 0, 0) matrix(1, 0, 0, 1, -134.72, -34.2538)">Cooper</text><text x="953" y="346.125" dominant-baseline="central" transform="matrix(1.16464, 0, 0, 1.08017, 0, 0) matrix(1, 0, 0, 1, -134.72, -25.6903)">MN3</text><text x="953" y="115.375" dominant-baseline="central" transform="matrix(1.16464, 0, 0, 1.08017, 0, 0) matrix(1, 0, 0, 1, -134.72, -8.56344)">C36_876_459</text><text x="953" y="0" dominant-baseline="central" transform="matrix(1.16464, 0, 0, 1.08017, 0, 0) matrix(1, 0, 0, 1, -134.72, -0)">C14_CSU_034_10640</text></svg>