<svg xmlns="http://www.w3.org/2000/svg" version="1.1" width="1913" height="923" preserveAspectRatio="none" style="stroke-width: 2px; font-size: 11px; font-family: sans-serif; shape-rendering: crispedges;" id="SVG" viewBox="-20 -40 2027.683349609375 990"><rect id="backgroundRect" x="-20" y="-40" width="2027.683349609375" height="990" fill="white"></rect><path d="M 1913 923 H 1360.56600660066 V 876.8499999999999" fill="none" stroke="black" stroke-width="2" class="treeEdge" vector-effect="non-scaling-stroke" id="node#14"></path><path d="M 1913 738.4000000000001 H 1202.7277227722773 V 807.625" fill="none" stroke="black" stroke-width="2" class="treeEdge" vector-effect="non-scaling-stroke" id="node#16"></path><path d="M 1913 646.0999999999999 H 965.970297029703 V 726.8625" fill="none" stroke="black" stroke-width="2" class="treeEdge" vector-effect="non-scaling-stroke" id="node#11"></path><path d="M 1913 553.8 H 1557.8638613861388 V 553.8" fill="none" stroke="black" stroke-width="2" class="treeEdge" vector-effect="non-scaling-stroke" id="node#18"></path><path d="M 1913 369.20000000000005 H 1498.674504950495 V 369.20000000000005" fill="none" stroke="black" stroke-width="2" class="treeEdge" vector-effect="non-scaling-stroke" id="node#21"></path><path d="M 1913 276.90000000000003 H 1617.053217821782 V 276.90000000000003" fill="none" stroke="black" stroke-width="2" class="treeEdge" vector-effect="non-scaling-stroke" id="node#6"></path><path d="M 1913 184.59999999999997 H 1439.4851485148515 V 230.75" fill="none" stroke="black" stroke-width="2" class="treeEdge" vector-effect="non-scaling-stroke" id="node#4"></path><path d="M 1913 92.29999999999998 H 1202.7277227722773 V 161.52500000000003" fill="none" stroke="black" stroke-width="2" class="treeEdge" vector-effect="non-scaling-stroke" id="node#7"></path><path d="M 1360.56600660066 876.8499999999999 H 1202.7277227722773 V 807.625" fill="none" stroke="black" stroke-width="2" class="treeEdge" vector-effect="non-scaling-stroke" id="node#13"></path><path d="M 1202.7277227722773 807.625 H 965.970297029703 V 726.8625" fill="none" stroke="black" stroke-width="2" class="treeEdge" vector-effect="non-scaling-stroke" id="node#12"></path><path d="M 965.970297029703 726.8625 H 729.2128712871287 V 640.33125" fill="none" stroke="black" stroke-width="2" class="treeEdge" vector-effect="non-scaling-stroke" id="node#10"></path><path d="M 1557.8638613861388 553.8 H 729.2128712871287 V 640.33125" fill="none" stroke="black" stroke-width="2" class="treeEdge" vector-effect="non-scaling-stroke" id="node#17"></path><path d="M 729.2128712871287 640.33125 H 492.4554455445545 V 527.8406249999999" fill="none" stroke="black" stroke-width="2" class="treeEdge" vector-effect="non-scaling-stroke" id="node#9"></path><path d="M 1498.674504950495 369.20000000000005 H 1281.6468646864687 V 415.34999999999997" fill="none" stroke="black" stroke-width="2" class="treeEdge" vector-effect="non-scaling-stroke" id="node#20"></path><path d="M 1281.6468646864687 415.34999999999997 H 492.4554455445545 V 527.8406249999999" fill="none" stroke="black" stroke-width="2" class="treeEdge" vector-effect="non-scaling-stroke" id="node#19"></path><path d="M 492.4554455445545 527.8406249999999 H 255.69801980198022 V 344.68281249999995" fill="none" stroke="black" stroke-width="2" class="treeEdge" vector-effect="non-scaling-stroke" id="node#8"></path><path d="M 1617.053217821782 276.90000000000003 H 1439.4851485148515 V 230.75" fill="none" stroke="black" stroke-width="2" class="treeEdge" vector-effect="non-scaling-stroke" id="node#5"></path><path d="M 1439.4851485148515 230.75 H 1202.7277227722773 V 161.52500000000003" fill="none" stroke="black" stroke-width="2" class="treeEdge" vector-effect="non-scaling-stroke" id="node#3"></path><path d="M 1202.7277227722773 161.52500000000003 H 255.69801980198022 V 344.68281249999995" fill="none" stroke="black" stroke-width="2" class="treeEdge" vector-effect="non-scaling-stroke" id="node#2"></path><path d="M 255.69801980198022 344.68281249999995 H 18.940594059405957 V 172.34140625000003" fill="none" stroke="black" stroke-width="2" class="treeEdge" vector-effect="non-scaling-stroke" id="node#1"></path><path d="M 18.940594059405957 172.34140625000003 H 0 V 172.34140625000003" fill="none" stroke="black" stroke-width="2" class="treeEdge" vector-effect="non-scaling-stroke" id="node#0"></path><path d="M 1617.053217821782 276.90000000000003 L 1617.053217821782 830.7 H 1360.56600660066 V 876.8499999999999" fill="none" stroke="black" stroke-width="2" class="treeEdge" vector-effect="non-scaling-stroke" stroke-dasharray="6, 2" id="node#15"></path><ellipse cx="1617.053217821782" cy="276.90000000000003" rx="2.8958358247748346" ry="2.9303686885083295" shape-rendering="auto" fill="black" class="nodeMark"></ellipse><path d="M 1498.674504950495 369.20000000000005 L 1498.674504950495 0 H 18.940594059405957 V 172.34140625000003" fill="none" stroke="black" stroke-width="2" class="treeEdge" vector-effect="non-scaling-stroke" stroke-dasharray="6, 2" id="node#23"></path><ellipse cx="1498.674504950495" cy="369.20000000000005" rx="2.8958358247748346" ry="2.9303686885083295" shape-rendering="auto" fill="black" class="nodeMark"></ellipse><path d="M 1557.8638613861388 553.8 L 1557.8638613861388 461.5 H 1281.6468646864687 V 415.34999999999997" fill="none" stroke="black" stroke-width="2" class="treeEdge" vector-effect="non-scaling-stroke" stroke-dasharray="6, 2" id="node#22"></path><ellipse cx="1557.8638613861388" cy="553.8" rx="2.8958358247748346" ry="2.9303686885083295" shape-rendering="auto" fill="black" class="nodeMark"></ellipse><text x="1913" y="923" dominant-baseline="central" transform="matrix(1.05995, 0, 0, 1.07259, 0, 0) matrix(1, 0, 0, 1, -108.197, -62.4657)">MN3</text><text x="1913" y="738.4000000000001" dominant-baseline="central" transform="matrix(1.05995, 0, 0, 1.07259, 0, 0) matrix(1, 0, 0, 1, -108.197, -49.9725)">Cooper</text><text x="1913" y="646.0999999999999" dominant-baseline="central" transform="matrix(1.05995, 0, 0, 1.07259, 0, 0) matrix(1, 0, 0, 1, -108.197, -43.726)">C36_876_459</text><text x="1913" y="553.8" dominant-baseline="central" transform="matrix(1.05995, 0, 0, 1.07259, 0, 0) matrix(1, 0, 0, 1, -108.197, -37.4794)">216_II</text><text x="1913" y="369.20000000000005" dominant-baseline="central" transform="matrix(1.05995, 0, 0, 1.07259, 0, 0) matrix(1, 0, 0, 1, -108.197, -24.9863)">BHV5</text><text x="1913" y="276.90000000000003" dominant-baseline="central" transform="matrix(1.05995, 0, 0, 1.07259, 0, 0) matrix(1, 0, 0, 1, -108.197, -18.7397)">MN2</text><text x="1913" y="184.59999999999997" dominant-baseline="central" transform="matrix(1.05995, 0, 0, 1.07259, 0, 0) matrix(1, 0, 0, 1, -108.197, -12.4931)">SM023</text><text x="1913" y="92.29999999999998" dominant-baseline="central" transform="matrix(1.05995, 0, 0, 1.07259, 0, 0) matrix(1, 0, 0, 1, -108.197, -6.24657)">K22</text></svg>