<svg xmlns="http://www.w3.org/2000/svg" version="1.1" width="953" height="923" preserveAspectRatio="none" style="stroke-width: 2px; font-size: 11px; font-family: sans-serif; shape-rendering: crispedges;" id="SVG" viewBox="-20 -47 1150.7196044921875 997"><rect id="backgroundRect" x="-20" y="-47" width="1150.7196044921875" height="997" fill="white"></rect><path d="M 953 923 H 750.8076379066478 V 923" fill="none" stroke="black" stroke-width="2" class="treeEdge" vector-effect="non-scaling-stroke" id="node#12"></path><path d="M 953 791.1428571428572 H 683.4101838755304 V 857.0714285714286" fill="none" stroke="black" stroke-width="2" class="treeEdge" vector-effect="non-scaling-stroke" id="node#10"></path><path d="M 953 395.5714285714286 H 279.025459688826 V 519.1875" fill="none" stroke="black" stroke-width="2" class="treeEdge" vector-effect="non-scaling-stroke" id="node#6"></path><path d="M 953 263.7142857142857 H 818.2050919377652 V 197.7857142857143" fill="none" stroke="black" stroke-width="2" class="treeEdge" vector-effect="non-scaling-stroke" id="node#3"></path><path d="M 953 131.8571428571429 H 818.2050919377652 V 197.7857142857143" fill="none" stroke="black" stroke-width="2" class="treeEdge" vector-effect="non-scaling-stroke" id="node#4"></path><path d="M 953 0 H 9.435643564356443 V 179.2433035714286" fill="none" stroke="black" stroke-width="2" class="treeEdge" vector-effect="non-scaling-stroke" id="node#16"></path><path d="M 750.8076379066478 923 H 683.4101838755304 V 857.0714285714286" fill="none" stroke="black" stroke-width="2" class="treeEdge" vector-effect="non-scaling-stroke" id="node#11"></path><path d="M 683.4101838755304 857.0714285714286 H 548.6152758132956 V 758.1785714285714" fill="none" stroke="black" stroke-width="2" class="treeEdge" vector-effect="non-scaling-stroke" id="node#9"></path><path d="M 616.012729844413 659.2857142857143 H 548.6152758132956 V 758.1785714285714" fill="none" stroke="black" stroke-width="2" class="treeEdge" vector-effect="non-scaling-stroke" id="node#13"></path><path d="M 548.6152758132956 758.1785714285714 H 413.8203677510608 V 642.8035714285714" fill="none" stroke="black" stroke-width="2" class="treeEdge" vector-effect="non-scaling-stroke" id="node#8"></path><path d="M 413.8203677510608 642.8035714285714 H 279.025459688826 V 519.1875" fill="none" stroke="black" stroke-width="2" class="treeEdge" vector-effect="non-scaling-stroke" id="node#7"></path><path d="M 279.025459688826 519.1875 H 144.23055162659125 V 358.4866071428572" fill="none" stroke="black" stroke-width="2" class="treeEdge" vector-effect="non-scaling-stroke" id="node#5"></path><path d="M 818.2050919377652 197.7857142857143 H 144.23055162659125 V 358.4866071428572" fill="none" stroke="black" stroke-width="2" class="treeEdge" vector-effect="non-scaling-stroke" id="node#2"></path><path d="M 144.23055162659125 358.4866071428572 H 9.435643564356443 V 179.2433035714286" fill="none" stroke="black" stroke-width="2" class="treeEdge" vector-effect="non-scaling-stroke" id="node#1"></path><path d="M 9.435643564356443 179.2433035714286 H 0 V 179.2433035714286" fill="none" stroke="black" stroke-width="2" class="treeEdge" vector-effect="non-scaling-stroke" id="node#0"></path><path d="M 750.8076379066478 923 L 750.8076379066478 659.2857142857143 H 616.012729844413 V 659.2857142857143" fill="none" stroke="black" stroke-width="2" class="treeEdge" vector-effect="non-scaling-stroke" stroke-dasharray="6, 2" id="node#14"></path><ellipse cx="750.8076379066478" cy="923" rx="3.298871379578405" ry="2.9510884671139443" shape-rendering="auto" fill="black" class="nodeMark"></ellipse><path d="M 616.012729844413 659.2857142857143 L 616.012729844413 527.4285714285714 H 413.8203677510608 V 642.8035714285714" fill="none" stroke="black" stroke-width="2" class="treeEdge" vector-effect="non-scaling-stroke" stroke-dasharray="6, 2" id="node#15"></path><ellipse cx="616.012729844413" cy="659.2857142857143" rx="3.298871379578405" ry="2.9510884671139443" shape-rendering="auto" fill="black" class="nodeMark"></ellipse><text x="953" y="923" dominant-baseline="central" transform="matrix(1.20747, 0, 0, 1.08017, 0, 0) matrix(1, 0, 0, 1, -163.747, -68.5075)">Cooper</text><text x="953" y="791.1428571428572" dominant-baseline="central" transform="matrix(1.20747, 0, 0, 1.08017, 0, 0) matrix(1, 0, 0, 1, -163.747, -58.7207)">C46</text><text x="953" y="395.5714285714286" dominant-baseline="central" transform="matrix(1.20747, 0, 0, 1.08017, 0, 0) matrix(1, 0, 0, 1, -163.747, -29.3604)">Titanium_IBR_MLV_vaccine</text><text x="953" y="263.7142857142857" dominant-baseline="central" transform="matrix(1.20747, 0, 0, 1.08017, 0, 0) matrix(1, 0, 0, 1, -163.747, -19.5736)">SP1777</text><text x="953" y="131.8571428571429" dominant-baseline="central" transform="matrix(1.20747, 0, 0, 1.08017, 0, 0) matrix(1, 0, 0, 1, -163.747, -9.78679)">B589</text><text x="953" y="0" dominant-baseline="central" transform="matrix(1.20747, 0, 0, 1.08017, 0, 0) matrix(1, 0, 0, 1, -163.747, -0)">C33</text></svg>