<svg xmlns="http://www.w3.org/2000/svg" version="1.1" width="1228" height="661" preserveAspectRatio="none" id="SVG" style="stroke-width: 2px; font-size: 11px; font-family: sans-serif; shape-rendering: crispedges;" viewBox="-20 -46.25 1296.7421875 733.5"><rect id="backgroundRect" x="-20" y="-46.25" width="1296.7421875" height="733.5" fill="white"></rect><path d="M 37.929839247212534 661 H 37.84539683863709 V 654.2551020408163" fill="none" stroke="black" stroke-width="2" class="treeEdge" vector-effect="non-scaling-stroke" id="node#23"></path><path d="M 38.0433462189952 647.5102040816327 H 37.84539683863709 V 654.2551020408163" fill="none" stroke="black" stroke-width="2" class="treeEdge" vector-effect="non-scaling-stroke" id="node#24"></path><path d="M 38.09932080512883 634.0204081632653 H 37.73092087171658 V 644.1377551020408" fill="none" stroke="black" stroke-width="2" class="treeEdge" vector-effect="non-scaling-stroke" id="node#21"></path><path d="M 39.373239136299155 620.530612244898 H 37.55596887518136 V 632.3341836734694" fill="none" stroke="black" stroke-width="2" class="treeEdge" vector-effect="non-scaling-stroke" id="node#19"></path><path d="M 37.35925114659923 607.0408163265306 H 37.284825970910276 V 619.6875" fill="none" stroke="black" stroke-width="2" class="treeEdge" vector-effect="non-scaling-stroke" id="node#17"></path><path d="M 36.96834059447238 593.5510204081633 H 36.880769737476356 V 606.6192602040817" fill="none" stroke="black" stroke-width="2" class="treeEdge" vector-effect="non-scaling-stroke" id="node#25"></path><path d="M 36.74494337612844 580.0612244897959 H 36.74161047124566 V 593.3402423469388" fill="none" stroke="black" stroke-width="2" class="treeEdge" vector-effect="non-scaling-stroke" id="node#26"></path><path d="M 36.75311861123762 566.5714285714287 H 36.604441348694934 V 579.9558354591837" fill="none" stroke="black" stroke-width="2" class="treeEdge" vector-effect="non-scaling-stroke" id="node#27"></path><path d="M 36.55399615720251 553.0816326530612 H 36.41608781683216 V 566.5187340561225" fill="none" stroke="black" stroke-width="2" class="treeEdge" vector-effect="non-scaling-stroke" id="node#28"></path><path d="M 36.3777119813146 539.5918367346939 H 36.3095089335304 V 553.0552853954082" fill="none" stroke="black" stroke-width="2" class="treeEdge" vector-effect="non-scaling-stroke" id="node#29"></path><path d="M 35.95255856201087 526.1020408163265 H 35.94492829218617 V 539.5786631058673" fill="none" stroke="black" stroke-width="2" class="treeEdge" vector-effect="non-scaling-stroke" id="node#30"></path><path d="M 36.057699069534884 512.6122448979592 H 35.82835485139105 V 526.0954540019133" fill="none" stroke="black" stroke-width="2" class="treeEdge" vector-effect="non-scaling-stroke" id="node#31"></path><path d="M 35.994509551195925 499.1224489795918 H 35.71166992324589 V 492.3775510204082" fill="none" stroke="black" stroke-width="2" class="treeEdge" vector-effect="non-scaling-stroke" id="node#33"></path><path d="M 35.7170821616889 485.63265306122446 H 35.71166992324589 V 492.3775510204082" fill="none" stroke="black" stroke-width="2" class="treeEdge" vector-effect="non-scaling-stroke" id="node#34"></path><path d="M 35.07747469913495 472.14285714285717 H 34.988490031370404 V 490.6896798270089" fill="none" stroke="black" stroke-width="2" class="treeEdge" vector-effect="non-scaling-stroke" id="node#35"></path><path d="M 34.78951118815937 458.6530612244898 H 34.3781761534955 V 474.67137052574935" fill="none" stroke="black" stroke-width="2" class="treeEdge" vector-effect="non-scaling-stroke" id="node#36"></path><path d="M 35.461684294636626 445.1632653061225 H 35.10706797692782 V 438.41836734693874" fill="none" stroke="black" stroke-width="2" class="treeEdge" vector-effect="non-scaling-stroke" id="node#48"></path><path d="M 35.16190425832086 431.6734693877551 H 35.10706797692782 V 438.41836734693874" fill="none" stroke="black" stroke-width="2" class="treeEdge" vector-effect="non-scaling-stroke" id="node#49"></path><path d="M 35.27440179718108 418.18367346938777 H 35.046102158819146 V 428.30102040816325" fill="none" stroke="black" stroke-width="2" class="treeEdge" vector-effect="non-scaling-stroke" id="node#46"></path><path d="M 35.10912690263395 404.6938775510204 H 34.938388372085804 V 416.4974489795918" fill="none" stroke="black" stroke-width="2" class="treeEdge" vector-effect="non-scaling-stroke" id="node#44"></path><path d="M 35.14017745236575 391.2040816326531 H 34.99855790596852 V 384.4591836734694" fill="none" stroke="black" stroke-width="2" class="treeEdge" vector-effect="non-scaling-stroke" id="node#51"></path><path d="M 35.06785579732304 377.71428571428567 H 34.99855790596852 V 384.4591836734694" fill="none" stroke="black" stroke-width="2" class="treeEdge" vector-effect="non-scaling-stroke" id="node#52"></path><path d="M 35.664317655391535 364.2244897959183 H 34.90242293086953 V 357.4795918367347" fill="none" stroke="black" stroke-width="2" class="treeEdge" vector-effect="non-scaling-stroke" id="node#40"></path><path d="M 35.6543472849842 350.73469387755097 H 34.90242293086953 V 357.4795918367347" fill="none" stroke="black" stroke-width="2" class="treeEdge" vector-effect="non-scaling-stroke" id="node#41"></path><path d="M 35.0838351469384 337.2448979591837 H 34.3923255988767 V 358.1119260204082" fill="none" stroke="black" stroke-width="2" class="treeEdge" vector-effect="non-scaling-stroke" id="node#53"></path><path d="M 35.79340413402206 323.7551020408163 H 35.71032111527144 V 317.01020408163265" fill="none" stroke="black" stroke-width="2" class="treeEdge" vector-effect="non-scaling-stroke" id="node#59"></path><path d="M 35.71560221435672 310.265306122449 H 35.71032111527144 V 317.01020408163265" fill="none" stroke="black" stroke-width="2" class="treeEdge" vector-effect="non-scaling-stroke" id="node#60"></path><path d="M 35.84889195504754 296.7755102040817 H 35.732611026825275 V 290.030612244898" fill="none" stroke="black" stroke-width="2" class="treeEdge" vector-effect="non-scaling-stroke" id="node#62"></path><path d="M 35.87179070090993 283.28571428571433 H 35.732611026825275 V 290.030612244898" fill="none" stroke="black" stroke-width="2" class="treeEdge" vector-effect="non-scaling-stroke" id="node#63"></path><path d="M 39.28617280680275 269.7959183673469 H 35.19697439942762 V 286.6581632653061" fill="none" stroke="black" stroke-width="2" class="treeEdge" vector-effect="non-scaling-stroke" id="node#64"></path><path d="M 35.23439068788798 256.3061224489796 H 35.23178150597253 V 249.5612244897959" fill="none" stroke="black" stroke-width="2" class="treeEdge" vector-effect="non-scaling-stroke" id="node#70"></path><path d="M 35.25845835027157 242.81632653061223 H 35.23178150597253 V 249.5612244897959" fill="none" stroke="black" stroke-width="2" class="treeEdge" vector-effect="non-scaling-stroke" id="node#71"></path><path d="M 35.48692880992943 229.32653061224494 H 35.22614213567406 V 239.44387755102042" fill="none" stroke="black" stroke-width="2" class="treeEdge" vector-effect="non-scaling-stroke" id="node#68"></path><path d="M 35.06108568074839 215.83673469387756 H 35.05386167838561 V 227.64030612244903" fill="none" stroke="black" stroke-width="2" class="treeEdge" vector-effect="non-scaling-stroke" id="node#72"></path><path d="M 35.069216698840506 202.3469387755102 H 34.998374235283464 V 214.99362244897958" fill="none" stroke="black" stroke-width="2" class="treeEdge" vector-effect="non-scaling-stroke" id="node#73"></path><path d="M 35.02684394734137 188.85714285714283 H 34.78063830678486 V 219.84151785714283" fill="none" stroke="black" stroke-width="2" class="treeEdge" vector-effect="non-scaling-stroke" id="node#74"></path><path d="M 38.41135122264175 175.36734693877548 H 38.237169055707035 V 168.6224489795918" fill="none" stroke="black" stroke-width="2" class="treeEdge" vector-effect="non-scaling-stroke" id="node#84"></path><path d="M 38.38032070284058 161.8775510204082 H 38.237169055707035 V 168.6224489795918" fill="none" stroke="black" stroke-width="2" class="treeEdge" vector-effect="non-scaling-stroke" id="node#85"></path><path d="M 37.32244444829368 148.38775510204084 H 35.67449286018427 V 158.50510204081633" fill="none" stroke="black" stroke-width="2" class="treeEdge" vector-effect="non-scaling-stroke" id="node#86"></path><path d="M 36.714810046053294 134.89795918367346 H 35.670763135919685 V 128.1530612244898" fill="none" stroke="black" stroke-width="2" class="treeEdge" vector-effect="non-scaling-stroke" id="node#80"></path><path d="M 35.980271671781146 121.40816326530611 H 35.670763135919685 V 128.1530612244898" fill="none" stroke="black" stroke-width="2" class="treeEdge" vector-effect="non-scaling-stroke" id="node#81"></path><path d="M 35.3028556364639 107.91836734693875 H 34.84083807452538 V 125.6237244897959" fill="none" stroke="black" stroke-width="2" class="treeEdge" vector-effect="non-scaling-stroke" id="node#87"></path><path d="M 35.95474749330502 94.42857142857146 H 34.08957168473772 V 110.02614795918367" fill="none" stroke="black" stroke-width="2" class="treeEdge" vector-effect="non-scaling-stroke" id="node#76"></path><path d="M 47.56394755580872 80.9387755102041 H 30.255567065875578 V 147.5050705111756" fill="none" stroke="black" stroke-width="2" class="treeEdge" vector-effect="non-scaling-stroke" id="node#88"></path><path d="M 38.66012409563609 67.44897959183673 H 35.10348299725675 V 60.70408163265306" fill="none" stroke="black" stroke-width="2" class="treeEdge" vector-effect="non-scaling-stroke" id="node#93"></path><path d="M 37.30735057278412 53.959183673469376 H 35.10348299725675 V 60.70408163265306" fill="none" stroke="black" stroke-width="2" class="treeEdge" vector-effect="non-scaling-stroke" id="node#94"></path><path d="M 50.32266726488791 40.46938775510201 H 39.605506590554846 V 33.72448979591833" fill="none" stroke="black" stroke-width="2" class="treeEdge" vector-effect="non-scaling-stroke" id="node#96"></path><path d="M 51.85170266615761 26.979591836734723 H 39.605506590554846 V 33.72448979591833" fill="none" stroke="black" stroke-width="2" class="treeEdge" vector-effect="non-scaling-stroke" id="node#97"></path><path d="M 22.37744725647601 13.489795918367362 H 20.704602621668688 V 30.35204081632653" fill="none" stroke="black" stroke-width="2" class="treeEdge" vector-effect="non-scaling-stroke" id="node#90"></path><path d="M 1228 0 H 12.15841584158417 V 59.28570377583407" fill="none" stroke="black" stroke-width="2" class="treeEdge" vector-effect="non-scaling-stroke" id="node#1"></path><path d="M 37.84539683863709 654.2551020408163 H 37.73092087171658 V 644.1377551020408" fill="none" stroke="black" stroke-width="2" class="treeEdge" vector-effect="non-scaling-stroke" id="node#22"></path><path d="M 37.73092087171658 644.1377551020408 H 37.55596887518136 V 632.3341836734694" fill="none" stroke="black" stroke-width="2" class="treeEdge" vector-effect="non-scaling-stroke" id="node#20"></path><path d="M 37.55596887518136 632.3341836734694 H 37.284825970910276 V 619.6875" fill="none" stroke="black" stroke-width="2" class="treeEdge" vector-effect="non-scaling-stroke" id="node#18"></path><path d="M 37.284825970910276 619.6875 H 36.880769737476356 V 606.6192602040817" fill="none" stroke="black" stroke-width="2" class="treeEdge" vector-effect="non-scaling-stroke" id="node#16"></path><path d="M 36.880769737476356 606.6192602040817 H 36.74161047124566 V 593.3402423469388" fill="none" stroke="black" stroke-width="2" class="treeEdge" vector-effect="non-scaling-stroke" id="node#15"></path><path d="M 36.74161047124566 593.3402423469388 H 36.604441348694934 V 579.9558354591837" fill="none" stroke="black" stroke-width="2" class="treeEdge" vector-effect="non-scaling-stroke" id="node#14"></path><path d="M 36.604441348694934 579.9558354591837 H 36.41608781683216 V 566.5187340561225" fill="none" stroke="black" stroke-width="2" class="treeEdge" vector-effect="non-scaling-stroke" id="node#13"></path><path d="M 36.41608781683216 566.5187340561225 H 36.3095089335304 V 553.0552853954082" fill="none" stroke="black" stroke-width="2" class="treeEdge" vector-effect="non-scaling-stroke" id="node#12"></path><path d="M 36.3095089335304 553.0552853954082 H 35.94492829218617 V 539.5786631058673" fill="none" stroke="black" stroke-width="2" class="treeEdge" vector-effect="non-scaling-stroke" id="node#11"></path><path d="M 35.94492829218617 539.5786631058673 H 35.82835485139105 V 526.0954540019133" fill="none" stroke="black" stroke-width="2" class="treeEdge" vector-effect="non-scaling-stroke" id="node#10"></path><path d="M 35.82835485139105 526.0954540019133 H 35.68506186097286 V 509.23650251116067" fill="none" stroke="black" stroke-width="2" class="treeEdge" vector-effect="non-scaling-stroke" id="node#9"></path><path d="M 35.71166992324589 492.3775510204082 H 35.68506186097286 V 509.23650251116067" fill="none" stroke="black" stroke-width="2" class="treeEdge" vector-effect="non-scaling-stroke" id="node#32"></path><path d="M 35.68506186097286 509.23650251116067 H 34.988490031370404 V 490.6896798270089" fill="none" stroke="black" stroke-width="2" class="treeEdge" vector-effect="non-scaling-stroke" id="node#8"></path><path d="M 34.988490031370404 490.6896798270089 H 34.3781761534955 V 474.67137052574935" fill="none" stroke="black" stroke-width="2" class="treeEdge" vector-effect="non-scaling-stroke" id="node#7"></path><path d="M 34.3781761534955 474.67137052574935 H 34.129328073780314 V 416.3916482730788" fill="none" stroke="black" stroke-width="2" class="treeEdge" vector-effect="non-scaling-stroke" id="node#6"></path><path d="M 35.10706797692782 438.41836734693874 H 35.046102158819146 V 428.30102040816325" fill="none" stroke="black" stroke-width="2" class="treeEdge" vector-effect="non-scaling-stroke" id="node#47"></path><path d="M 35.046102158819146 428.30102040816325 H 34.938388372085804 V 416.4974489795918" fill="none" stroke="black" stroke-width="2" class="treeEdge" vector-effect="non-scaling-stroke" id="node#45"></path><path d="M 34.938388372085804 416.4974489795918 H 34.861167320410516 V 400.4783163265306" fill="none" stroke="black" stroke-width="2" class="treeEdge" vector-effect="non-scaling-stroke" id="node#43"></path><path d="M 34.99855790596852 384.4591836734694 H 34.861167320410516 V 400.4783163265306" fill="none" stroke="black" stroke-width="2" class="treeEdge" vector-effect="non-scaling-stroke" id="node#50"></path><path d="M 34.861167320410516 400.4783163265306 H 34.646180405419095 V 378.97895408163265" fill="none" stroke="black" stroke-width="2" class="treeEdge" vector-effect="non-scaling-stroke" id="node#42"></path><path d="M 34.90242293086953 357.4795918367347 H 34.646180405419095 V 378.97895408163265" fill="none" stroke="black" stroke-width="2" class="treeEdge" vector-effect="non-scaling-stroke" id="node#39"></path><path d="M 34.646180405419095 378.97895408163265 H 34.3923255988767 V 358.1119260204082" fill="none" stroke="black" stroke-width="2" class="treeEdge" vector-effect="non-scaling-stroke" id="node#38"></path><path d="M 34.3923255988767 358.1119260204082 H 34.129328073780314 V 416.3916482730788" fill="none" stroke="black" stroke-width="2" class="treeEdge" vector-effect="non-scaling-stroke" id="node#37"></path><path d="M 34.129328073780314 416.3916482730788 H 34.123257871010296 V 318.1165830651108" fill="none" stroke="black" stroke-width="2" class="treeEdge" vector-effect="non-scaling-stroke" id="node#5"></path><path d="M 35.71032111527144 317.01020408163265 H 35.65098150078124 V 303.5204081632653" fill="none" stroke="black" stroke-width="2" class="treeEdge" vector-effect="non-scaling-stroke" id="node#58"></path><path d="M 35.732611026825275 290.030612244898 H 35.65098150078124 V 303.5204081632653" fill="none" stroke="black" stroke-width="2" class="treeEdge" vector-effect="non-scaling-stroke" id="node#61"></path><path d="M 35.65098150078124 303.5204081632653 H 35.19697439942762 V 286.6581632653061" fill="none" stroke="black" stroke-width="2" class="treeEdge" vector-effect="non-scaling-stroke" id="node#57"></path><path d="M 35.19697439942762 286.6581632653061 H 34.95832986874646 V 250.82589285714283" fill="none" stroke="black" stroke-width="2" class="treeEdge" vector-effect="non-scaling-stroke" id="node#56"></path><path d="M 35.23178150597253 249.5612244897959 H 35.22614213567406 V 239.44387755102042" fill="none" stroke="black" stroke-width="2" class="treeEdge" vector-effect="non-scaling-stroke" id="node#69"></path><path d="M 35.22614213567406 239.44387755102042 H 35.05386167838561 V 227.64030612244903" fill="none" stroke="black" stroke-width="2" class="treeEdge" vector-effect="non-scaling-stroke" id="node#67"></path><path d="M 35.05386167838561 227.64030612244903 H 34.998374235283464 V 214.99362244897958" fill="none" stroke="black" stroke-width="2" class="treeEdge" vector-effect="non-scaling-stroke" id="node#66"></path><path d="M 34.998374235283464 214.99362244897958 H 34.95832986874646 V 250.82589285714283" fill="none" stroke="black" stroke-width="2" class="treeEdge" vector-effect="non-scaling-stroke" id="node#65"></path><path d="M 34.95832986874646 250.82589285714283 H 34.78063830678486 V 219.84151785714283" fill="none" stroke="black" stroke-width="2" class="treeEdge" vector-effect="non-scaling-stroke" id="node#55"></path><path d="M 34.78063830678486 219.84151785714283 H 34.123257871010296 V 318.1165830651108" fill="none" stroke="black" stroke-width="2" class="treeEdge" vector-effect="non-scaling-stroke" id="node#54"></path><path d="M 34.123257871010296 318.1165830651108 H 33.48678263610914 V 214.0713655121472" fill="none" stroke="black" stroke-width="2" class="treeEdge" vector-effect="non-scaling-stroke" id="node#4"></path><path d="M 38.237169055707035 168.6224489795918 H 35.67449286018427 V 158.50510204081633" fill="none" stroke="black" stroke-width="2" class="treeEdge" vector-effect="non-scaling-stroke" id="node#83"></path><path d="M 35.67449286018427 158.50510204081633 H 35.53814080763653 V 143.32908163265304" fill="none" stroke="black" stroke-width="2" class="treeEdge" vector-effect="non-scaling-stroke" id="node#82"></path><path d="M 35.670763135919685 128.1530612244898 H 35.53814080763653 V 143.32908163265304" fill="none" stroke="black" stroke-width="2" class="treeEdge" vector-effect="non-scaling-stroke" id="node#79"></path><path d="M 35.53814080763653 143.32908163265304 H 34.84083807452538 V 125.6237244897959" fill="none" stroke="black" stroke-width="2" class="treeEdge" vector-effect="non-scaling-stroke" id="node#78"></path><path d="M 34.84083807452538 125.6237244897959 H 34.08957168473772 V 110.02614795918367" fill="none" stroke="black" stroke-width="2" class="treeEdge" vector-effect="non-scaling-stroke" id="node#77"></path><path d="M 34.08957168473772 110.02614795918367 H 33.48678263610914 V 214.0713655121472" fill="none" stroke="black" stroke-width="2" class="treeEdge" vector-effect="non-scaling-stroke" id="node#75"></path><path d="M 33.48678263610914 214.0713655121472 H 30.255567065875578 V 147.5050705111756" fill="none" stroke="black" stroke-width="2" class="treeEdge" vector-effect="non-scaling-stroke" id="node#3"></path><path d="M 30.255567065875578 147.5050705111756 H 12.15841584158417 V 59.28570377583407" fill="none" stroke="black" stroke-width="2" class="treeEdge" vector-effect="non-scaling-stroke" id="node#2"></path><path d="M 35.10348299725675 60.70408163265306 H 33.05530731717058 V 47.214285714285694" fill="none" stroke="black" stroke-width="2" class="treeEdge" vector-effect="non-scaling-stroke" id="node#92"></path><path d="M 39.605506590554846 33.72448979591833 H 33.05530731717058 V 47.214285714285694" fill="none" stroke="black" stroke-width="2" class="treeEdge" vector-effect="non-scaling-stroke" id="node#95"></path><path d="M 33.05530731717058 47.214285714285694 H 20.704602621668688 V 30.35204081632653" fill="none" stroke="black" stroke-width="2" class="treeEdge" vector-effect="non-scaling-stroke" id="node#91"></path><path d="M 20.704602621668688 30.35204081632653 H 12.15841584158417 V 59.28570377583407" fill="none" stroke="black" stroke-width="2" class="treeEdge" vector-effect="non-scaling-stroke" id="node#89"></path><path d="M 12.15841584158417 59.28570377583407 H 0 V 59.28570377583407" fill="none" stroke="black" stroke-width="2" class="treeEdge" vector-effect="non-scaling-stroke" id="node#0"></path><text x="37.929839247212534" y="661" dominant-baseline="central" transform="matrix(1.05598 0 0 1.10968 0 0) matrix(1 0 0 1 -2.01072 -65.334)">MN9</text><text x="38.0433462189952" y="647.5102040816327" dominant-baseline="central" transform="matrix(1.05598 0 0 1.10968 0 0) matrix(1 0 0 1 -2.01673 -64.0007)">MN10</text><text x="38.09932080512883" y="634.0204081632653" dominant-baseline="central" transform="matrix(1.05598 0 0 1.10968 0 0) matrix(1 0 0 1 -2.0197 -62.6673)">MN5</text><text x="39.373239136299155" y="620.530612244898" dominant-baseline="central" transform="matrix(1.05598 0 0 1.10968 0 0) matrix(1 0 0 1 -2.08723 -61.334)">MN3</text><text x="37.35925114659923" y="607.0408163265306" dominant-baseline="central" transform="matrix(1.05598 0 0 1.10968 0 0) matrix(1 0 0 1 -1.98047 -60.0006)">MN1</text><text x="36.96834059447238" y="593.5510204081633" dominant-baseline="central" transform="matrix(1.05598 0 0 1.10968 0 0) matrix(1 0 0 1 -1.95975 -58.6673)">MN4</text><text x="36.74494337612844" y="580.0612244897959" dominant-baseline="central" transform="matrix(1.05598 0 0 1.10968 0 0) matrix(1 0 0 1 -1.9479 -57.3339)">NVSL_challenge_97_11</text><text x="36.75311861123762" y="566.5714285714287" dominant-baseline="central" transform="matrix(1.05598 0 0 1.10968 0 0) matrix(1 0 0 1 -1.94834 -56.0006)">MN11</text><text x="36.55399615720251" y="553.0816326530612" dominant-baseline="central" transform="matrix(1.05598 0 0 1.10968 0 0) matrix(1 0 0 1 -1.93778 -54.6672)">MN13</text><text x="36.3777119813146" y="539.5918367346939" dominant-baseline="central" transform="matrix(1.05598 0 0 1.10968 0 0) matrix(1 0 0 1 -1.92844 -53.3339)">MN15</text><text x="35.95255856201087" y="526.1020408163265" dominant-baseline="central" transform="matrix(1.05598 0 0 1.10968 0 0) matrix(1 0 0 1 -1.9059 -52.0005)">MN14</text><text x="36.057699069534884" y="512.6122448979592" dominant-baseline="central" transform="matrix(1.05598 0 0 1.10968 0 0) matrix(1 0 0 1 -1.91147 -50.6672)">PA3</text><text x="35.994509551195925" y="499.1224489795918" dominant-baseline="central" transform="matrix(1.05598 0 0 1.10968 0 0) matrix(1 0 0 1 -1.90812 -49.3338)">MN12</text><text x="35.7170821616889" y="485.63265306122446" dominant-baseline="central" transform="matrix(1.05598 0 0 1.10968 0 0) matrix(1 0 0 1 -1.89341 -48.0005)">PA2</text><text x="35.07747469913495" y="472.14285714285717" dominant-baseline="central" transform="matrix(1.05598 0 0 1.10968 0 0) matrix(1 0 0 1 -1.85951 -46.6672)">TSV-2_Nasal_MLV_vaccine</text><text x="34.78951118815937" y="458.6530612244898" dominant-baseline="central" transform="matrix(1.05598 0 0 1.10968 0 0) matrix(1 0 0 1 -1.84424 -45.3338)">VR188_Los_Angeles</text><text x="35.461684294636626" y="445.1632653061225" dominant-baseline="central" transform="matrix(1.05598 0 0 1.10968 0 0) matrix(1 0 0 1 -1.87988 -44.0005)">Pyramid_IBR_MLV_vaccine</text><text x="35.16190425832086" y="431.6734693877551" dominant-baseline="central" transform="matrix(1.05598 0 0 1.10968 0 0) matrix(1 0 0 1 -1.86398 -42.6671)">Express1_IBR_MLV_vaccine</text><text x="35.27440179718108" y="418.18367346938777" dominant-baseline="central" transform="matrix(1.05598 0 0 1.10968 0 0) matrix(1 0 0 1 -1.86995 -41.3338)">Vista_IBR_MLV_vaccine</text><text x="35.10912690263395" y="404.6938775510204" dominant-baseline="central" transform="matrix(1.05598 0 0 1.10968 0 0) matrix(1 0 0 1 -1.86119 -40.0004)">C29</text><text x="35.14017745236575" y="391.2040816326531" dominant-baseline="central" transform="matrix(1.05598 0 0 1.10968 0 0) matrix(1 0 0 1 -1.86283 -38.6671)">BoviShield_Gold_FP5_MLV_vaccine</text><text x="35.06785579732304" y="377.71428571428567" dominant-baseline="central" transform="matrix(1.05598 0 0 1.10968 0 0) matrix(1 0 0 1 -1.859 -37.3337)">BovSh_IBR_MLV_vaccine</text><text x="35.664317655391535" y="364.2244897959183" dominant-baseline="central" transform="matrix(1.05598 0 0 1.10968 0 0) matrix(1 0 0 1 -1.89062 -36.0004)">C18</text><text x="35.6543472849842" y="350.73469387755097" dominant-baseline="central" transform="matrix(1.05598 0 0 1.10968 0 0) matrix(1 0 0 1 -1.89009 -34.667)">C26</text><text x="35.0838351469384" y="337.2448979591837" dominant-baseline="central" transform="matrix(1.05598 0 0 1.10968 0 0) matrix(1 0 0 1 -1.85985 -33.3337)">C33</text><text x="35.79340413402206" y="323.7551020408163" dominant-baseline="central" transform="matrix(1.05598 0 0 1.10968 0 0) matrix(1 0 0 1 -1.89746 -32.0003)">MN6</text><text x="35.71560221435672" y="310.265306122449" dominant-baseline="central" transform="matrix(1.05598 0 0 1.10968 0 0) matrix(1 0 0 1 -1.89334 -30.667)">MN8</text><text x="35.84889195504754" y="296.7755102040817" dominant-baseline="central" transform="matrix(1.05598 0 0 1.10968 0 0) matrix(1 0 0 1 -1.9004 -29.3336)">MN7</text><text x="35.87179070090993" y="283.28571428571433" dominant-baseline="central" transform="matrix(1.05598 0 0 1.10968 0 0) matrix(1 0 0 1 -1.90162 -28.0003)">PA1</text><text x="39.28617280680275" y="269.7959183673469" dominant-baseline="central" transform="matrix(1.05598 0 0 1.10968 0 0) matrix(1 0 0 1 -2.08262 -26.6669)">Cooper</text><text x="35.23439068788798" y="256.3061224489796" dominant-baseline="central" transform="matrix(1.05598 0 0 1.10968 0 0) matrix(1 0 0 1 -1.86783 -25.3336)">C45</text><text x="35.25845835027157" y="242.81632653061223" dominant-baseline="central" transform="matrix(1.05598 0 0 1.10968 0 0) matrix(1 0 0 1 -1.8691 -24.0003)">C46</text><text x="35.48692880992943" y="229.32653061224494" dominant-baseline="central" transform="matrix(1.05598 0 0 1.10968 0 0) matrix(1 0 0 1 -1.88121 -22.6669)">C44</text><text x="35.06108568074839" y="215.83673469387756" dominant-baseline="central" transform="matrix(1.05598 0 0 1.10968 0 0) matrix(1 0 0 1 -1.85864 -21.3336)">Nasalgen_IP_MLV_vaccine</text><text x="35.069216698840506" y="202.3469387755102" dominant-baseline="central" transform="matrix(1.05598 0 0 1.10968 0 0) matrix(1 0 0 1 -1.85907 -20.0002)">Arsenal_IBR_MLV_vaccine</text><text x="35.02684394734137" y="188.85714285714283" dominant-baseline="central" transform="matrix(1.05598 0 0 1.10968 0 0) matrix(1 0 0 1 -1.85682 -18.6669)">Titanium_IBR_MLV_vaccine</text><text x="38.41135122264175" y="175.36734693877548" dominant-baseline="central" transform="matrix(1.05598 0 0 1.10968 0 0) matrix(1 0 0 1 -2.03624 -17.3335)">C35_1839_9847</text><text x="38.38032070284058" y="161.8775510204082" dominant-baseline="central" transform="matrix(1.05598 0 0 1.10968 0 0) matrix(1 0 0 1 -2.0346 -16.0002)">C36_876_459</text><text x="37.32244444829368" y="148.38775510204084" dominant-baseline="central" transform="matrix(1.05598 0 0 1.10968 0 0) matrix(1 0 0 1 -1.97852 -14.6668)">C43</text><text x="36.714810046053294" y="134.89795918367346" dominant-baseline="central" transform="matrix(1.05598 0 0 1.10968 0 0) matrix(1 0 0 1 -1.94631 -13.3335)">C28_55771</text><text x="35.980271671781146" y="121.40816326530611" dominant-baseline="central" transform="matrix(1.05598 0 0 1.10968 0 0) matrix(1 0 0 1 -1.90737 -12.0001)">C42</text><text x="35.3028556364639" y="107.91836734693875" dominant-baseline="central" transform="matrix(1.05598 0 0 1.10968 0 0) matrix(1 0 0 1 -1.87146 -10.6668)">C47</text><text x="35.95474749330502" y="94.42857142857146" dominant-baseline="central" transform="matrix(1.05598 0 0 1.10968 0 0) matrix(1 0 0 1 -1.90601 -9.33343)">C14_CSU_034_10640</text><text x="47.56394755580872" y="80.9387755102041" dominant-baseline="central" transform="matrix(1.05598 0 0 1.10968 0 0) matrix(1 0 0 1 -2.52143 -8.00008)">216_II</text><text x="38.66012409563609" y="67.44897959183673" dominant-baseline="central" transform="matrix(1.05598 0 0 1.10968 0 0) matrix(1 0 0 1 -2.04943 -6.66674)">SP1777</text><text x="37.30735057278412" y="53.959183673469376" dominant-baseline="central" transform="matrix(1.05598 0 0 1.10968 0 0) matrix(1 0 0 1 -1.97772 -5.33339)">SM023</text><text x="50.32266726488791" y="40.46938775510201" dominant-baseline="central" transform="matrix(1.05598 0 0 1.10968 0 0) matrix(1 0 0 1 -2.66768 -4.00004)">K22</text><text x="51.85170266615761" y="26.979591836734723" dominant-baseline="central" transform="matrix(1.05598 0 0 1.10968 0 0) matrix(1 0 0 1 -2.74873 -2.66669)">B589</text><text x="22.37744725647601" y="13.489795918367362" dominant-baseline="central" transform="matrix(1.05598 0 0 1.10968 0 0) matrix(1 0 0 1 -1.18626 -1.33335)">MN2</text><text x="1228" y="0" dominant-baseline="central" transform="matrix(1.05598 0 0 1.10968 0 0) matrix(1 0 0 1 -65.0981 0)">BHV5</text></svg>