<svg xmlns="http://www.w3.org/2000/svg" version="1.1" width="1913" height="923" preserveAspectRatio="none" style="stroke-width: 2px; font-size: 11px; font-family: sans-serif; shape-rendering: crispedges;" id="SVG" viewBox="-20 -47 2144.85009765625 997"><rect id="backgroundRect" x="-20" y="-47" width="2144.85009765625" height="997" fill="white"></rect><path d="M 1913 923 H 1813.312662845232 V 913.5816326530612" fill="none" stroke="black" stroke-width="2" class="treeEdge" vector-effect="non-scaling-stroke" id="node#23"></path><path d="M 1913 904.1632653061224 H 1813.312662845232 V 913.5816326530612" fill="none" stroke="black" stroke-width="2" class="treeEdge" vector-effect="non-scaling-stroke" id="node#24"></path><path d="M 1913 885.3265306122448 H 1713.6253256904638 V 899.4540816326531" fill="none" stroke="black" stroke-width="2" class="treeEdge" vector-effect="non-scaling-stroke" id="node#21"></path><path d="M 1913 866.4897959183673 H 1613.9379885356957 V 882.9719387755102" fill="none" stroke="black" stroke-width="2" class="treeEdge" vector-effect="non-scaling-stroke" id="node#19"></path><path d="M 1913 847.6530612244898 H 1514.2506513809276 V 865.3125" fill="none" stroke="black" stroke-width="2" class="treeEdge" vector-effect="non-scaling-stroke" id="node#17"></path><path d="M 1913 828.8163265306123 H 1414.5633142261597 V 847.0644132653061" fill="none" stroke="black" stroke-width="2" class="treeEdge" vector-effect="non-scaling-stroke" id="node#25"></path><path d="M 1913 809.9795918367347 H 1314.8759770713914 V 828.5220025510204" fill="none" stroke="black" stroke-width="2" class="treeEdge" vector-effect="non-scaling-stroke" id="node#26"></path><path d="M 1913 791.1428571428572 H 1215.188639916623 V 809.8324298469388" fill="none" stroke="black" stroke-width="2" class="treeEdge" vector-effect="non-scaling-stroke" id="node#27"></path><path d="M 1913 772.3061224489796 H 1115.5013027618554 V 791.0692761479593" fill="none" stroke="black" stroke-width="2" class="treeEdge" vector-effect="non-scaling-stroke" id="node#28"></path><path d="M 1913 753.469387755102 H 1015.8139656070871 V 772.2693319515306" fill="none" stroke="black" stroke-width="2" class="treeEdge" vector-effect="non-scaling-stroke" id="node#29"></path><path d="M 1913 734.6326530612245 H 916.1266284523191 V 753.4509925063776" fill="none" stroke="black" stroke-width="2" class="treeEdge" vector-effect="non-scaling-stroke" id="node#30"></path><path d="M 1913 715.7959183673469 H 816.4392912975509 V 734.6234554368623" fill="none" stroke="black" stroke-width="2" class="treeEdge" vector-effect="non-scaling-stroke" id="node#31"></path><path d="M 1913 696.9591836734694 H 1813.312662845232 V 687.5408163265306" fill="none" stroke="black" stroke-width="2" class="treeEdge" vector-effect="non-scaling-stroke" id="node#33"></path><path d="M 1913 678.1224489795918 H 1813.312662845232 V 687.5408163265306" fill="none" stroke="black" stroke-width="2" class="treeEdge" vector-effect="non-scaling-stroke" id="node#34"></path><path d="M 1913 659.2857142857143 H 617.0646169880148 V 685.1839250837053" fill="none" stroke="black" stroke-width="2" class="treeEdge" vector-effect="non-scaling-stroke" id="node#35"></path><path d="M 1913 640.4489795918367 H 517.3772798332466 V 662.816452337771" fill="none" stroke="black" stroke-width="2" class="treeEdge" vector-effect="non-scaling-stroke" id="node#36"></path><path d="M 1913 621.6122448979593 H 1813.312662845232 V 612.1938775510204" fill="none" stroke="black" stroke-width="2" class="treeEdge" vector-effect="non-scaling-stroke" id="node#42"></path><path d="M 1913 602.7755102040817 H 1813.312662845232 V 612.1938775510204" fill="none" stroke="black" stroke-width="2" class="treeEdge" vector-effect="non-scaling-stroke" id="node#43"></path><path d="M 1913 583.9387755102041 H 1813.312662845232 V 574.5204081632653" fill="none" stroke="black" stroke-width="2" class="treeEdge" vector-effect="non-scaling-stroke" id="node#45"></path><path d="M 1913 565.1020408163265 H 1813.312662845232 V 574.5204081632653" fill="none" stroke="black" stroke-width="2" class="treeEdge" vector-effect="non-scaling-stroke" id="node#46"></path><path d="M 1913 546.2653061224489 H 1613.9379885356957 V 569.8112244897959" fill="none" stroke="black" stroke-width="2" class="treeEdge" vector-effect="non-scaling-stroke" id="node#47"></path><path d="M 1913 527.4285714285714 H 1813.312662845232 V 518.0102040816328" fill="none" stroke="black" stroke-width="2" class="treeEdge" vector-effect="non-scaling-stroke" id="node#53"></path><path d="M 1913 508.5918367346938 H 1813.312662845232 V 518.0102040816328" fill="none" stroke="black" stroke-width="2" class="treeEdge" vector-effect="non-scaling-stroke" id="node#54"></path><path d="M 1913 489.75510204081627 H 1713.6253256904638 V 503.88265306122446" fill="none" stroke="black" stroke-width="2" class="treeEdge" vector-effect="non-scaling-stroke" id="node#51"></path><path d="M 1913 470.9183673469388 H 1613.9379885356957 V 487.4005102040817" fill="none" stroke="black" stroke-width="2" class="treeEdge" vector-effect="non-scaling-stroke" id="node#55"></path><path d="M 1913 452.0816326530612 H 1514.2506513809276 V 469.7410714285714" fill="none" stroke="black" stroke-width="2" class="treeEdge" vector-effect="non-scaling-stroke" id="node#56"></path><path d="M 1913 433.2448979591836 H 1314.8759770713914 V 476.5105229591836" fill="none" stroke="black" stroke-width="2" class="treeEdge" vector-effect="non-scaling-stroke" id="node#57"></path><path d="M 1913 414.4081632653062 H 1813.312662845232 V 404.9897959183674" fill="none" stroke="black" stroke-width="2" class="treeEdge" vector-effect="non-scaling-stroke" id="node#69"></path><path d="M 1913 395.5714285714286 H 1813.312662845232 V 404.9897959183674" fill="none" stroke="black" stroke-width="2" class="treeEdge" vector-effect="non-scaling-stroke" id="node#70"></path><path d="M 1913 376.734693877551 H 1713.6253256904638 V 390.8622448979593" fill="none" stroke="black" stroke-width="2" class="treeEdge" vector-effect="non-scaling-stroke" id="node#67"></path><path d="M 1913 357.89795918367344 H 1613.9379885356957 V 374.3801020408164" fill="none" stroke="black" stroke-width="2" class="treeEdge" vector-effect="non-scaling-stroke" id="node#65"></path><path d="M 1913 339.0612244897959 H 1813.312662845232 V 329.6428571428572" fill="none" stroke="black" stroke-width="2" class="treeEdge" vector-effect="non-scaling-stroke" id="node#72"></path><path d="M 1913 320.22448979591843 H 1813.312662845232 V 329.6428571428572" fill="none" stroke="black" stroke-width="2" class="treeEdge" vector-effect="non-scaling-stroke" id="node#73"></path><path d="M 1913 301.38775510204084 H 1813.312662845232 V 291.96938775510205" fill="none" stroke="black" stroke-width="2" class="treeEdge" vector-effect="non-scaling-stroke" id="node#61"></path><path d="M 1913 282.55102040816325 H 1813.312662845232 V 291.96938775510205" fill="none" stroke="black" stroke-width="2" class="treeEdge" vector-effect="non-scaling-stroke" id="node#62"></path><path d="M 1913 263.7142857142857 H 1314.8759770713914 V 292.8523596938776" fill="none" stroke="black" stroke-width="2" class="treeEdge" vector-effect="non-scaling-stroke" id="node#74"></path><path d="M 1913 244.87755102040813 H 1813.312662845232 V 235.45918367346934" fill="none" stroke="black" stroke-width="2" class="treeEdge" vector-effect="non-scaling-stroke" id="node#84"></path><path d="M 1913 226.04081632653066 H 1813.312662845232 V 235.45918367346934" fill="none" stroke="black" stroke-width="2" class="treeEdge" vector-effect="non-scaling-stroke" id="node#85"></path><path d="M 1913 207.2040816326531 H 1713.6253256904638 V 221.3316326530612" fill="none" stroke="black" stroke-width="2" class="treeEdge" vector-effect="non-scaling-stroke" id="node#86"></path><path d="M 1913 188.3673469387755 H 1813.312662845232 V 178.94897959183672" fill="none" stroke="black" stroke-width="2" class="treeEdge" vector-effect="non-scaling-stroke" id="node#80"></path><path d="M 1913 169.53061224489795 H 1813.312662845232 V 178.94897959183672" fill="none" stroke="black" stroke-width="2" class="treeEdge" vector-effect="non-scaling-stroke" id="node#81"></path><path d="M 1913 150.69387755102036 H 1514.2506513809276 V 175.41709183673467" fill="none" stroke="black" stroke-width="2" class="treeEdge" vector-effect="non-scaling-stroke" id="node#87"></path><path d="M 1913 131.8571428571429 H 1414.5633142261597 V 153.6371173469388" fill="none" stroke="black" stroke-width="2" class="treeEdge" vector-effect="non-scaling-stroke" id="node#76"></path><path d="M 1913 113.02040816326533 H 118.6279312141742 V 202.73396433616176" fill="none" stroke="black" stroke-width="2" class="treeEdge" vector-effect="non-scaling-stroke" id="node#88"></path><path d="M 1913 94.18367346938776 H 1813.312662845232 V 84.76530612244898" fill="none" stroke="black" stroke-width="2" class="treeEdge" vector-effect="non-scaling-stroke" id="node#93"></path><path d="M 1913 75.34693877551018 H 1813.312662845232 V 84.76530612244898" fill="none" stroke="black" stroke-width="2" class="treeEdge" vector-effect="non-scaling-stroke" id="node#94"></path><path d="M 1913 56.510204081632615 H 1813.312662845232 V 47.09183673469383" fill="none" stroke="black" stroke-width="2" class="treeEdge" vector-effect="non-scaling-stroke" id="node#96"></path><path d="M 1913 37.67346938775514 H 1813.312662845232 V 47.09183673469383" fill="none" stroke="black" stroke-width="2" class="treeEdge" vector-effect="non-scaling-stroke" id="node#97"></path><path d="M 1913 18.83673469387757 H 1613.9379885356957 V 42.38265306122449" fill="none" stroke="black" stroke-width="2" class="treeEdge" vector-effect="non-scaling-stroke" id="node#90"></path><path d="M 1913 0 H 18.94059405940617 V 81.70553913246212" fill="none" stroke="black" stroke-width="2" class="treeEdge" vector-effect="non-scaling-stroke" id="node#1"></path><path d="M 1813.312662845232 913.5816326530612 H 1713.6253256904638 V 899.4540816326531" fill="none" stroke="black" stroke-width="2" class="treeEdge" vector-effect="non-scaling-stroke" id="node#22"></path><path d="M 1713.6253256904638 899.4540816326531 H 1613.9379885356957 V 882.9719387755102" fill="none" stroke="black" stroke-width="2" class="treeEdge" vector-effect="non-scaling-stroke" id="node#20"></path><path d="M 1613.9379885356957 882.9719387755102 H 1514.2506513809276 V 865.3125" fill="none" stroke="black" stroke-width="2" class="treeEdge" vector-effect="non-scaling-stroke" id="node#18"></path><path d="M 1514.2506513809276 865.3125 H 1414.5633142261597 V 847.0644132653061" fill="none" stroke="black" stroke-width="2" class="treeEdge" vector-effect="non-scaling-stroke" id="node#16"></path><path d="M 1414.5633142261597 847.0644132653061 H 1314.8759770713914 V 828.5220025510204" fill="none" stroke="black" stroke-width="2" class="treeEdge" vector-effect="non-scaling-stroke" id="node#15"></path><path d="M 1314.8759770713914 828.5220025510204 H 1215.188639916623 V 809.8324298469388" fill="none" stroke="black" stroke-width="2" class="treeEdge" vector-effect="non-scaling-stroke" id="node#14"></path><path d="M 1215.188639916623 809.8324298469388 H 1115.5013027618554 V 791.0692761479593" fill="none" stroke="black" stroke-width="2" class="treeEdge" vector-effect="non-scaling-stroke" id="node#13"></path><path d="M 1115.5013027618554 791.0692761479593 H 1015.8139656070871 V 772.2693319515306" fill="none" stroke="black" stroke-width="2" class="treeEdge" vector-effect="non-scaling-stroke" id="node#12"></path><path d="M 1015.8139656070871 772.2693319515306 H 916.1266284523191 V 753.4509925063776" fill="none" stroke="black" stroke-width="2" class="treeEdge" vector-effect="non-scaling-stroke" id="node#11"></path><path d="M 916.1266284523191 753.4509925063776 H 816.4392912975509 V 734.6234554368623" fill="none" stroke="black" stroke-width="2" class="treeEdge" vector-effect="non-scaling-stroke" id="node#10"></path><path d="M 816.4392912975509 734.6234554368623 H 716.7519541427828 V 711.0821358816964" fill="none" stroke="black" stroke-width="2" class="treeEdge" vector-effect="non-scaling-stroke" id="node#9"></path><path d="M 1813.312662845232 687.5408163265306 H 716.7519541427828 V 711.0821358816964" fill="none" stroke="black" stroke-width="2" class="treeEdge" vector-effect="non-scaling-stroke" id="node#32"></path><path d="M 716.7519541427828 711.0821358816964 H 617.0646169880148 V 685.1839250837053" fill="none" stroke="black" stroke-width="2" class="treeEdge" vector-effect="non-scaling-stroke" id="node#8"></path><path d="M 617.0646169880148 685.1839250837053 H 517.3772798332466 V 662.816452337771" fill="none" stroke="black" stroke-width="2" class="treeEdge" vector-effect="non-scaling-stroke" id="node#7"></path><path d="M 517.3772798332466 662.816452337771 H 417.6899426784785 V 569.6634876484774" fill="none" stroke="black" stroke-width="2" class="treeEdge" vector-effect="non-scaling-stroke" id="node#6"></path><path d="M 1813.312662845232 612.1938775510204 H 1713.6253256904638 V 593.3571428571429" fill="none" stroke="black" stroke-width="2" class="treeEdge" vector-effect="non-scaling-stroke" id="node#41"></path><path d="M 1813.312662845232 574.5204081632653 H 1713.6253256904638 V 593.3571428571429" fill="none" stroke="black" stroke-width="2" class="treeEdge" vector-effect="non-scaling-stroke" id="node#44"></path><path d="M 1713.6253256904638 593.3571428571429 H 1613.9379885356957 V 569.8112244897959" fill="none" stroke="black" stroke-width="2" class="treeEdge" vector-effect="non-scaling-stroke" id="node#40"></path><path d="M 1613.9379885356957 569.8112244897959 H 1414.5633142261597 V 519.7761479591836" fill="none" stroke="black" stroke-width="2" class="treeEdge" vector-effect="non-scaling-stroke" id="node#39"></path><path d="M 1813.312662845232 518.0102040816328 H 1713.6253256904638 V 503.88265306122446" fill="none" stroke="black" stroke-width="2" class="treeEdge" vector-effect="non-scaling-stroke" id="node#52"></path><path d="M 1713.6253256904638 503.88265306122446 H 1613.9379885356957 V 487.4005102040817" fill="none" stroke="black" stroke-width="2" class="treeEdge" vector-effect="non-scaling-stroke" id="node#50"></path><path d="M 1613.9379885356957 487.4005102040817 H 1514.2506513809276 V 469.7410714285714" fill="none" stroke="black" stroke-width="2" class="treeEdge" vector-effect="non-scaling-stroke" id="node#49"></path><path d="M 1514.2506513809276 469.7410714285714 H 1414.5633142261597 V 519.7761479591836" fill="none" stroke="black" stroke-width="2" class="treeEdge" vector-effect="non-scaling-stroke" id="node#48"></path><path d="M 1414.5633142261597 519.7761479591836 H 1314.8759770713914 V 476.5105229591836" fill="none" stroke="black" stroke-width="2" class="treeEdge" vector-effect="non-scaling-stroke" id="node#38"></path><path d="M 1314.8759770713914 476.5105229591836 H 417.6899426784785 V 569.6634876484774" fill="none" stroke="black" stroke-width="2" class="treeEdge" vector-effect="non-scaling-stroke" id="node#37"></path><path d="M 417.6899426784785 569.6634876484774 H 318.0026055237105 V 431.25792367117754" fill="none" stroke="black" stroke-width="2" class="treeEdge" vector-effect="non-scaling-stroke" id="node#5"></path><path d="M 1813.312662845232 404.9897959183674 H 1713.6253256904638 V 390.8622448979593" fill="none" stroke="black" stroke-width="2" class="treeEdge" vector-effect="non-scaling-stroke" id="node#68"></path><path d="M 1713.6253256904638 390.8622448979593 H 1613.9379885356957 V 374.3801020408164" fill="none" stroke="black" stroke-width="2" class="treeEdge" vector-effect="non-scaling-stroke" id="node#66"></path><path d="M 1613.9379885356957 374.3801020408164 H 1514.2506513809276 V 352.0114795918368" fill="none" stroke="black" stroke-width="2" class="treeEdge" vector-effect="non-scaling-stroke" id="node#64"></path><path d="M 1813.312662845232 329.6428571428572 H 1514.2506513809276 V 352.0114795918368" fill="none" stroke="black" stroke-width="2" class="treeEdge" vector-effect="non-scaling-stroke" id="node#71"></path><path d="M 1514.2506513809276 352.0114795918368 H 1414.5633142261597 V 321.99043367346945" fill="none" stroke="black" stroke-width="2" class="treeEdge" vector-effect="non-scaling-stroke" id="node#63"></path><path d="M 1813.312662845232 291.96938775510205 H 1414.5633142261597 V 321.99043367346945" fill="none" stroke="black" stroke-width="2" class="treeEdge" vector-effect="non-scaling-stroke" id="node#60"></path><path d="M 1414.5633142261597 321.99043367346945 H 1314.8759770713914 V 292.8523596938776" fill="none" stroke="black" stroke-width="2" class="treeEdge" vector-effect="non-scaling-stroke" id="node#59"></path><path d="M 1314.8759770713914 292.8523596938776 H 318.0026055237105 V 431.25792367117754" fill="none" stroke="black" stroke-width="2" class="treeEdge" vector-effect="non-scaling-stroke" id="node#58"></path><path d="M 318.0026055237105 431.25792367117754 H 218.31526836894224 V 292.4475205090581" fill="none" stroke="black" stroke-width="2" class="treeEdge" vector-effect="non-scaling-stroke" id="node#4"></path><path d="M 1813.312662845232 235.45918367346934 H 1713.6253256904638 V 221.3316326530612" fill="none" stroke="black" stroke-width="2" class="treeEdge" vector-effect="non-scaling-stroke" id="node#83"></path><path d="M 1713.6253256904638 221.3316326530612 H 1613.9379885356957 V 200.14030612244898" fill="none" stroke="black" stroke-width="2" class="treeEdge" vector-effect="non-scaling-stroke" id="node#82"></path><path d="M 1813.312662845232 178.94897959183672 H 1613.9379885356957 V 200.14030612244898" fill="none" stroke="black" stroke-width="2" class="treeEdge" vector-effect="non-scaling-stroke" id="node#79"></path><path d="M 1613.9379885356957 200.14030612244898 H 1514.2506513809276 V 175.41709183673467" fill="none" stroke="black" stroke-width="2" class="treeEdge" vector-effect="non-scaling-stroke" id="node#78"></path><path d="M 1514.2506513809276 175.41709183673467 H 1414.5633142261597 V 153.6371173469388" fill="none" stroke="black" stroke-width="2" class="treeEdge" vector-effect="non-scaling-stroke" id="node#77"></path><path d="M 1414.5633142261597 153.6371173469388 H 218.31526836894224 V 292.4475205090581" fill="none" stroke="black" stroke-width="2" class="treeEdge" vector-effect="non-scaling-stroke" id="node#75"></path><path d="M 218.31526836894224 292.4475205090581 H 118.6279312141742 V 202.73396433616176" fill="none" stroke="black" stroke-width="2" class="treeEdge" vector-effect="non-scaling-stroke" id="node#3"></path><path d="M 118.6279312141742 202.73396433616176 H 18.94059405940617 V 81.70553913246212" fill="none" stroke="black" stroke-width="2" class="treeEdge" vector-effect="non-scaling-stroke" id="node#2"></path><path d="M 1813.312662845232 84.76530612244898 H 1713.6253256904638 V 65.9285714285714" fill="none" stroke="black" stroke-width="2" class="treeEdge" vector-effect="non-scaling-stroke" id="node#92"></path><path d="M 1813.312662845232 47.09183673469383 H 1713.6253256904638 V 65.9285714285714" fill="none" stroke="black" stroke-width="2" class="treeEdge" vector-effect="non-scaling-stroke" id="node#95"></path><path d="M 1713.6253256904638 65.9285714285714 H 1613.9379885356957 V 42.38265306122449" fill="none" stroke="black" stroke-width="2" class="treeEdge" vector-effect="non-scaling-stroke" id="node#91"></path><path d="M 1613.9379885356957 42.38265306122449 H 18.94059405940617 V 81.70553913246212" fill="none" stroke="black" stroke-width="2" class="treeEdge" vector-effect="non-scaling-stroke" id="node#89"></path><path d="M 18.94059405940617 81.70553913246212 H 0 V 81.70553913246212" fill="none" stroke="black" stroke-width="2" class="treeEdge" vector-effect="non-scaling-stroke" id="node#0"></path><text x="1913" y="923" dominant-baseline="central" transform="matrix(1.1212, 0, 0, 1.08017, 0, 0) matrix(1, 0, 0, 1, -206.788, -68.5075)">MN9</text><text x="1913" y="904.1632653061224" dominant-baseline="central" transform="matrix(1.1212, 0, 0, 1.08017, 0, 0) matrix(1, 0, 0, 1, -206.788, -67.1094)">MN10</text><text x="1913" y="885.3265306122448" dominant-baseline="central" transform="matrix(1.1212, 0, 0, 1.08017, 0, 0) matrix(1, 0, 0, 1, -206.788, -65.7113)">MN5</text><text x="1913" y="866.4897959183673" dominant-baseline="central" transform="matrix(1.1212, 0, 0, 1.08017, 0, 0) matrix(1, 0, 0, 1, -206.788, -64.3132)">MN3</text><text x="1913" y="847.6530612244898" dominant-baseline="central" transform="matrix(1.1212, 0, 0, 1.08017, 0, 0) matrix(1, 0, 0, 1, -206.788, -62.9151)">MN1</text><text x="1913" y="828.8163265306123" dominant-baseline="central" transform="matrix(1.1212, 0, 0, 1.08017, 0, 0) matrix(1, 0, 0, 1, -206.788, -61.517)">MN4</text><text x="1913" y="809.9795918367347" dominant-baseline="central" transform="matrix(1.1212, 0, 0, 1.08017, 0, 0) matrix(1, 0, 0, 1, -206.788, -60.1188)">NVSL_challenge_97_11</text><text x="1913" y="791.1428571428572" dominant-baseline="central" transform="matrix(1.1212, 0, 0, 1.08017, 0, 0) matrix(1, 0, 0, 1, -206.788, -58.7207)">MN11</text><text x="1913" y="772.3061224489796" dominant-baseline="central" transform="matrix(1.1212, 0, 0, 1.08017, 0, 0) matrix(1, 0, 0, 1, -206.788, -57.3226)">MN13</text><text x="1913" y="753.469387755102" dominant-baseline="central" transform="matrix(1.1212, 0, 0, 1.08017, 0, 0) matrix(1, 0, 0, 1, -206.788, -55.9245)">MN15</text><text x="1913" y="734.6326530612245" dominant-baseline="central" transform="matrix(1.1212, 0, 0, 1.08017, 0, 0) matrix(1, 0, 0, 1, -206.788, -54.5264)">MN14</text><text x="1913" y="715.7959183673469" dominant-baseline="central" transform="matrix(1.1212, 0, 0, 1.08017, 0, 0) matrix(1, 0, 0, 1, -206.788, -53.1283)">PA3</text><text x="1913" y="696.9591836734694" dominant-baseline="central" transform="matrix(1.1212, 0, 0, 1.08017, 0, 0) matrix(1, 0, 0, 1, -206.788, -51.7302)">MN12</text><text x="1913" y="678.1224489795918" dominant-baseline="central" transform="matrix(1.1212, 0, 0, 1.08017, 0, 0) matrix(1, 0, 0, 1, -206.788, -50.3321)">PA2</text><text x="1913" y="659.2857142857143" dominant-baseline="central" transform="matrix(1.1212, 0, 0, 1.08017, 0, 0) matrix(1, 0, 0, 1, -206.788, -48.9339)">TSV-2_Nasal_MLV_vaccine</text><text x="1913" y="640.4489795918367" dominant-baseline="central" transform="matrix(1.1212, 0, 0, 1.08017, 0, 0) matrix(1, 0, 0, 1, -206.788, -47.5358)">VR188_Los_Angeles</text><text x="1913" y="621.6122448979593" dominant-baseline="central" transform="matrix(1.1212, 0, 0, 1.08017, 0, 0) matrix(1, 0, 0, 1, -206.788, -46.1377)">MN6</text><text x="1913" y="602.7755102040817" dominant-baseline="central" transform="matrix(1.1212, 0, 0, 1.08017, 0, 0) matrix(1, 0, 0, 1, -206.788, -44.7396)">MN8</text><text x="1913" y="583.9387755102041" dominant-baseline="central" transform="matrix(1.1212, 0, 0, 1.08017, 0, 0) matrix(1, 0, 0, 1, -206.788, -43.3415)">MN7</text><text x="1913" y="565.1020408163265" dominant-baseline="central" transform="matrix(1.1212, 0, 0, 1.08017, 0, 0) matrix(1, 0, 0, 1, -206.788, -41.9434)">PA1</text><text x="1913" y="546.2653061224489" dominant-baseline="central" transform="matrix(1.1212, 0, 0, 1.08017, 0, 0) matrix(1, 0, 0, 1, -206.788, -40.5453)">Cooper</text><text x="1913" y="527.4285714285714" dominant-baseline="central" transform="matrix(1.1212, 0, 0, 1.08017, 0, 0) matrix(1, 0, 0, 1, -206.788, -39.1472)">C45</text><text x="1913" y="508.5918367346938" dominant-baseline="central" transform="matrix(1.1212, 0, 0, 1.08017, 0, 0) matrix(1, 0, 0, 1, -206.788, -37.749)">C46</text><text x="1913" y="489.75510204081627" dominant-baseline="central" transform="matrix(1.1212, 0, 0, 1.08017, 0, 0) matrix(1, 0, 0, 1, -206.788, -36.3509)">C44</text><text x="1913" y="470.9183673469388" dominant-baseline="central" transform="matrix(1.1212, 0, 0, 1.08017, 0, 0) matrix(1, 0, 0, 1, -206.788, -34.9528)">Nasalgen_IP_MLV_vaccine</text><text x="1913" y="452.0816326530612" dominant-baseline="central" transform="matrix(1.1212, 0, 0, 1.08017, 0, 0) matrix(1, 0, 0, 1, -206.788, -33.5547)">Arsenal_IBR_MLV_vaccine</text><text x="1913" y="433.2448979591836" dominant-baseline="central" transform="matrix(1.1212, 0, 0, 1.08017, 0, 0) matrix(1, 0, 0, 1, -206.788, -32.1566)">Titanium_IBR_MLV_vaccine</text><text x="1913" y="414.4081632653062" dominant-baseline="central" transform="matrix(1.1212, 0, 0, 1.08017, 0, 0) matrix(1, 0, 0, 1, -206.788, -30.7585)">Pyramid_IBR_MLV_vaccine</text><text x="1913" y="395.5714285714286" dominant-baseline="central" transform="matrix(1.1212, 0, 0, 1.08017, 0, 0) matrix(1, 0, 0, 1, -206.788, -29.3604)">Express1_IBR_MLV_vaccine</text><text x="1913" y="376.734693877551" dominant-baseline="central" transform="matrix(1.1212, 0, 0, 1.08017, 0, 0) matrix(1, 0, 0, 1, -206.788, -27.9623)">Vista_IBR_MLV_vaccine</text><text x="1913" y="357.89795918367344" dominant-baseline="central" transform="matrix(1.1212, 0, 0, 1.08017, 0, 0) matrix(1, 0, 0, 1, -206.788, -26.5641)">C29</text><text x="1913" y="339.0612244897959" dominant-baseline="central" transform="matrix(1.1212, 0, 0, 1.08017, 0, 0) matrix(1, 0, 0, 1, -206.788, -25.166)">BoviShield_Gold_FP5_MLV_vaccine</text><text x="1913" y="320.22448979591843" dominant-baseline="central" transform="matrix(1.1212, 0, 0, 1.08017, 0, 0) matrix(1, 0, 0, 1, -206.788, -23.7679)">BovSh_IBR_MLV_vaccine</text><text x="1913" y="301.38775510204084" dominant-baseline="central" transform="matrix(1.1212, 0, 0, 1.08017, 0, 0) matrix(1, 0, 0, 1, -206.788, -22.3698)">C18</text><text x="1913" y="282.55102040816325" dominant-baseline="central" transform="matrix(1.1212, 0, 0, 1.08017, 0, 0) matrix(1, 0, 0, 1, -206.788, -20.9717)">C26</text><text x="1913" y="263.7142857142857" dominant-baseline="central" transform="matrix(1.1212, 0, 0, 1.08017, 0, 0) matrix(1, 0, 0, 1, -206.788, -19.5736)">C33</text><text x="1913" y="244.87755102040813" dominant-baseline="central" transform="matrix(1.1212, 0, 0, 1.08017, 0, 0) matrix(1, 0, 0, 1, -206.788, -18.1755)">C35_1839_9847</text><text x="1913" y="226.04081632653066" dominant-baseline="central" transform="matrix(1.1212, 0, 0, 1.08017, 0, 0) matrix(1, 0, 0, 1, -206.788, -16.7774)">C36_876_459</text><text x="1913" y="207.2040816326531" dominant-baseline="central" transform="matrix(1.1212, 0, 0, 1.08017, 0, 0) matrix(1, 0, 0, 1, -206.788, -15.3792)">C43</text><text x="1913" y="188.3673469387755" dominant-baseline="central" transform="matrix(1.1212, 0, 0, 1.08017, 0, 0) matrix(1, 0, 0, 1, -206.788, -13.9811)">C28_55771</text><text x="1913" y="169.53061224489795" dominant-baseline="central" transform="matrix(1.1212, 0, 0, 1.08017, 0, 0) matrix(1, 0, 0, 1, -206.788, -12.583)">C42</text><text x="1913" y="150.69387755102036" dominant-baseline="central" transform="matrix(1.1212, 0, 0, 1.08017, 0, 0) matrix(1, 0, 0, 1, -206.788, -11.1849)">C47</text><text x="1913" y="131.8571428571429" dominant-baseline="central" transform="matrix(1.1212, 0, 0, 1.08017, 0, 0) matrix(1, 0, 0, 1, -206.788, -9.78679)">C14_CSU_034_10640</text><text x="1913" y="113.02040816326533" dominant-baseline="central" transform="matrix(1.1212, 0, 0, 1.08017, 0, 0) matrix(1, 0, 0, 1, -206.788, -8.38868)">216_II</text><text x="1913" y="94.18367346938776" dominant-baseline="central" transform="matrix(1.1212, 0, 0, 1.08017, 0, 0) matrix(1, 0, 0, 1, -206.788, -6.99056)">SP1777</text><text x="1913" y="75.34693877551018" dominant-baseline="central" transform="matrix(1.1212, 0, 0, 1.08017, 0, 0) matrix(1, 0, 0, 1, -206.788, -5.59245)">SM023</text><text x="1913" y="56.510204081632615" dominant-baseline="central" transform="matrix(1.1212, 0, 0, 1.08017, 0, 0) matrix(1, 0, 0, 1, -206.788, -4.19434)">K22</text><text x="1913" y="37.67346938775514" dominant-baseline="central" transform="matrix(1.1212, 0, 0, 1.08017, 0, 0) matrix(1, 0, 0, 1, -206.788, -2.79623)">B589</text><text x="1913" y="18.83673469387757" dominant-baseline="central" transform="matrix(1.1212, 0, 0, 1.08017, 0, 0) matrix(1, 0, 0, 1, -206.788, -1.39811)">MN2</text><text x="1913" y="0" dominant-baseline="central" transform="matrix(1.1212, 0, 0, 1.08017, 0, 0) matrix(1, 0, 0, 1, -206.788, -0)">BHV5</text></svg>