<svg xmlns="http://www.w3.org/2000/svg" version="1.1" width="1913" height="923" preserveAspectRatio="none" style="stroke-width: 2px; font-size: 11px; font-family: sans-serif; shape-rendering: crispedges;" id="SVG" viewBox="-20 -47 1981.550048828125 997"><rect id="backgroundRect" x="-20" y="-47" width="1981.550048828125" height="997" fill="white"></rect><path d="M 1254.91464305961 923 H 1251.059277629871 V 913.5816326530612" fill="none" stroke="black" stroke-width="2" class="treeEdge" vector-effect="non-scaling-stroke" id="node#23"></path><path d="M 1260.4549121096472 904.1632653061224 H 1251.059277629871 V 913.5816326530612" fill="none" stroke="black" stroke-width="2" class="treeEdge" vector-effect="non-scaling-stroke" id="node#24"></path><path d="M 1262.8844613685542 885.3265306122448 H 1245.6421256698347 V 899.4540816326531" fill="none" stroke="black" stroke-width="2" class="treeEdge" vector-effect="non-scaling-stroke" id="node#21"></path><path d="M 1322.5308935174521 866.4897959183673 H 1237.4619251869603 V 882.9719387755102" fill="none" stroke="black" stroke-width="2" class="treeEdge" vector-effect="non-scaling-stroke" id="node#19"></path><path d="M 1228.3860575450526 847.6530612244898 H 1224.763510365628 V 865.3125" fill="none" stroke="black" stroke-width="2" class="treeEdge" vector-effect="non-scaling-stroke" id="node#17"></path><path d="M 1210.0080976854088 828.8163265306123 H 1205.8936272230715 V 847.0644132653061" fill="none" stroke="black" stroke-width="2" class="treeEdge" vector-effect="non-scaling-stroke" id="node#25"></path><path d="M 1199.5699417284488 809.9795918367347 H 1199.2720483067417 V 828.5220025510204" fill="none" stroke="black" stroke-width="2" class="treeEdge" vector-effect="non-scaling-stroke" id="node#26"></path><path d="M 1199.8519224157303 791.1428571428572 H 1192.8584426752632 V 809.8324298469388" fill="none" stroke="black" stroke-width="2" class="treeEdge" vector-effect="non-scaling-stroke" id="node#27"></path><path d="M 1190.384249844304 772.3061224489796 H 1183.9785214559445 V 791.0692761479593" fill="none" stroke="black" stroke-width="2" class="treeEdge" vector-effect="non-scaling-stroke" id="node#28"></path><path d="M 1182.0982692395435 753.469387755102 H 1178.844334838579 V 772.2693319515306" fill="none" stroke="black" stroke-width="2" class="treeEdge" vector-effect="non-scaling-stroke" id="node#29"></path><path d="M 1162.0808757388559 734.6326530612245 H 1161.8303688577876 V 753.4509925063776" fill="none" stroke="black" stroke-width="2" class="treeEdge" vector-effect="non-scaling-stroke" id="node#30"></path><path d="M 1167.0802173172017 715.7959183673469 H 1156.293106523316 V 734.6234554368623" fill="none" stroke="black" stroke-width="2" class="treeEdge" vector-effect="non-scaling-stroke" id="node#31"></path><path d="M 1164.1672550112523 696.9591836734694 H 1150.8614836456743 V 687.5408163265306" fill="none" stroke="black" stroke-width="2" class="treeEdge" vector-effect="non-scaling-stroke" id="node#33"></path><path d="M 1151.1172478831995 678.1224489795918 H 1150.8614836456743 V 687.5408163265306" fill="none" stroke="black" stroke-width="2" class="treeEdge" vector-effect="non-scaling-stroke" id="node#34"></path><path d="M 1121.180137071464 659.2857142857143 H 1117.0119501409818 V 685.1839250837053" fill="none" stroke="black" stroke-width="2" class="treeEdge" vector-effect="non-scaling-stroke" id="node#35"></path><path d="M 1107.8418720780196 640.4489795918367 H 1088.5544423007516 V 662.816452337771" fill="none" stroke="black" stroke-width="2" class="treeEdge" vector-effect="non-scaling-stroke" id="node#36"></path><path d="M 1154.9657031420775 621.6122448979593 H 1151.2205663666111 V 612.1938775510204" fill="none" stroke="black" stroke-width="2" class="treeEdge" vector-effect="non-scaling-stroke" id="node#42"></path><path d="M 1151.48397926654 602.7755102040817 H 1151.2205663666111 V 612.1938775510204" fill="none" stroke="black" stroke-width="2" class="treeEdge" vector-effect="non-scaling-stroke" id="node#43"></path><path d="M 1157.6343302462772 583.9387755102041 H 1152.2149803947452 V 574.5204081632653" fill="none" stroke="black" stroke-width="2" class="treeEdge" vector-effect="non-scaling-stroke" id="node#45"></path><path d="M 1158.6884214242918 565.1020408163265 H 1152.2149803947452 V 574.5204081632653" fill="none" stroke="black" stroke-width="2" class="treeEdge" vector-effect="non-scaling-stroke" id="node#46"></path><path d="M 1318.8313673862963 546.2653061224489 H 1127.2624940799028 V 569.8112244897959" fill="none" stroke="black" stroke-width="2" class="treeEdge" vector-effect="non-scaling-stroke" id="node#47"></path><path d="M 1128.9946963251798 527.4285714285714 H 1128.8731441339237 V 518.0102040816328" fill="none" stroke="black" stroke-width="2" class="treeEdge" vector-effect="non-scaling-stroke" id="node#53"></path><path d="M 1130.0936244896986 508.5918367346938 H 1128.8731441339237 V 518.0102040816328" fill="none" stroke="black" stroke-width="2" class="treeEdge" vector-effect="non-scaling-stroke" id="node#54"></path><path d="M 1140.7873688528646 489.75510204081627 H 1128.622180091424 V 503.88265306122446" fill="none" stroke="black" stroke-width="2" class="treeEdge" vector-effect="non-scaling-stroke" id="node#51"></path><path d="M 1120.759583721187 470.9183673469388 H 1120.5041535631688 V 487.4005102040817" fill="none" stroke="black" stroke-width="2" class="treeEdge" vector-effect="non-scaling-stroke" id="node#55"></path><path d="M 1121.4113904230337 452.0816326530612 H 1117.9468452674234 V 469.7410714285714" fill="none" stroke="black" stroke-width="2" class="treeEdge" vector-effect="non-scaling-stroke" id="node#56"></path><path d="M 1119.3728372695753 433.2448979591836 H 1107.7441098643085 V 476.5105229591836" fill="none" stroke="black" stroke-width="2" class="treeEdge" vector-effect="non-scaling-stroke" id="node#57"></path><path d="M 1139.0962408038515 414.4081632653062 H 1122.4800052680496 V 404.9897959183674" fill="none" stroke="black" stroke-width="2" class="treeEdge" vector-effect="non-scaling-stroke" id="node#69"></path><path d="M 1125.1169124021892 395.5714285714286 H 1122.4800052680496 V 404.9897959183674" fill="none" stroke="black" stroke-width="2" class="treeEdge" vector-effect="non-scaling-stroke" id="node#70"></path><path d="M 1130.1790609279044 376.734693877551 H 1119.531665700592 V 390.8622448979593" fill="none" stroke="black" stroke-width="2" class="treeEdge" vector-effect="non-scaling-stroke" id="node#67"></path><path d="M 1122.4169345737002 357.89795918367344 H 1114.3867533727293 V 374.3801020408164" fill="none" stroke="black" stroke-width="2" class="treeEdge" vector-effect="non-scaling-stroke" id="node#65"></path><path d="M 1123.8376516362637 339.0612244897959 H 1117.1718335599162 V 329.6428571428572" fill="none" stroke="black" stroke-width="2" class="treeEdge" vector-effect="non-scaling-stroke" id="node#72"></path><path d="M 1120.542484790847 320.22448979591843 H 1117.1718335599162 V 329.6428571428572" fill="none" stroke="black" stroke-width="2" class="treeEdge" vector-effect="non-scaling-stroke" id="node#73"></path><path d="M 1148.6054095667089 301.38775510204084 H 1112.897901673812 V 291.96938775510205" fill="none" stroke="black" stroke-width="2" class="treeEdge" vector-effect="non-scaling-stroke" id="node#61"></path><path d="M 1147.9703771727543 282.55102040816325 H 1112.897901673812 V 291.96938775510205" fill="none" stroke="black" stroke-width="2" class="treeEdge" vector-effect="non-scaling-stroke" id="node#62"></path><path d="M 1121.3408117313365 263.7142857142857 H 1088.8708507604151 V 292.8523596938776" fill="none" stroke="black" stroke-width="2" class="treeEdge" vector-effect="non-scaling-stroke" id="node#74"></path><path d="M 1280.8423074562204 244.87755102040813 H 1272.611203806315 V 235.45918367346934" fill="none" stroke="black" stroke-width="2" class="treeEdge" vector-effect="non-scaling-stroke" id="node#84"></path><path d="M 1279.3666606894067 226.04081632653066 H 1272.611203806315 V 235.45918367346934" fill="none" stroke="black" stroke-width="2" class="treeEdge" vector-effect="non-scaling-stroke" id="node#85"></path><path d="M 1229.0475349694789 207.2040816326531 H 1152.2161936308507 V 221.3316326530612" fill="none" stroke="black" stroke-width="2" class="treeEdge" vector-effect="non-scaling-stroke" id="node#86"></path><path d="M 1201.1888031050967 188.3673469387755 H 1152.1320055950148 V 178.94897959183672" fill="none" stroke="black" stroke-width="2" class="treeEdge" vector-effect="non-scaling-stroke" id="node#80"></path><path d="M 1166.388215575689 169.53061224489795 H 1152.1320055950148 V 178.94897959183672" fill="none" stroke="black" stroke-width="2" class="treeEdge" vector-effect="non-scaling-stroke" id="node#81"></path><path d="M 1132.7932506555485 150.69387755102036 H 1112.2207049294113 V 175.41709183673467" fill="none" stroke="black" stroke-width="2" class="treeEdge" vector-effect="non-scaling-stroke" id="node#87"></path><path d="M 1165.1239883875915 131.8571428571429 H 1076.9187343920958 V 153.6371173469388" fill="none" stroke="black" stroke-width="2" class="treeEdge" vector-effect="non-scaling-stroke" id="node#76"></path><path d="M 1720.6169749343505 113.02040816326533 H 894.9869998829821 V 202.73396433616176" fill="none" stroke="black" stroke-width="2" class="treeEdge" vector-effect="non-scaling-stroke" id="node#88"></path><path d="M 1282.7999606195199 94.18367346938776 H 1115.378776094917 V 84.76530612244898" fill="none" stroke="black" stroke-width="2" class="treeEdge" vector-effect="non-scaling-stroke" id="node#93"></path><path d="M 1218.1741085807894 75.34693877551018 H 1115.378776094917 V 84.76530612244898" fill="none" stroke="black" stroke-width="2" class="treeEdge" vector-effect="non-scaling-stroke" id="node#94"></path><path d="M 1839.446963283236 56.510204081632615 H 1327.7488110092227 V 47.09183673469383" fill="none" stroke="black" stroke-width="2" class="treeEdge" vector-effect="non-scaling-stroke" id="node#96"></path><path d="M 1913 37.67346938775514 H 1327.7488110092227 V 47.09183673469383" fill="none" stroke="black" stroke-width="2" class="treeEdge" vector-effect="non-scaling-stroke" id="node#97"></path><path d="M 497.9226390981559 18.83673469387757 H 426.4946645441055 V 42.38265306122449" fill="none" stroke="black" stroke-width="2" class="treeEdge" vector-effect="non-scaling-stroke" id="node#90"></path><path d="M 1777.253790300902 0 H 18.940594059405743 V 81.70553913246212" fill="none" stroke="black" stroke-width="2" class="treeEdge" vector-effect="non-scaling-stroke" id="node#1"></path><path d="M 1251.059277629871 913.5816326530612 H 1245.6421256698347 V 899.4540816326531" fill="none" stroke="black" stroke-width="2" class="treeEdge" vector-effect="non-scaling-stroke" id="node#22"></path><path d="M 1245.6421256698347 899.4540816326531 H 1237.4619251869603 V 882.9719387755102" fill="none" stroke="black" stroke-width="2" class="treeEdge" vector-effect="non-scaling-stroke" id="node#20"></path><path d="M 1237.4619251869603 882.9719387755102 H 1224.763510365628 V 865.3125" fill="none" stroke="black" stroke-width="2" class="treeEdge" vector-effect="non-scaling-stroke" id="node#18"></path><path d="M 1224.763510365628 865.3125 H 1205.8936272230715 V 847.0644132653061" fill="none" stroke="black" stroke-width="2" class="treeEdge" vector-effect="non-scaling-stroke" id="node#16"></path><path d="M 1205.8936272230715 847.0644132653061 H 1199.2720483067417 V 828.5220025510204" fill="none" stroke="black" stroke-width="2" class="treeEdge" vector-effect="non-scaling-stroke" id="node#15"></path><path d="M 1199.2720483067417 828.5220025510204 H 1192.8584426752632 V 809.8324298469388" fill="none" stroke="black" stroke-width="2" class="treeEdge" vector-effect="non-scaling-stroke" id="node#14"></path><path d="M 1192.8584426752632 809.8324298469388 H 1183.9785214559445 V 791.0692761479593" fill="none" stroke="black" stroke-width="2" class="treeEdge" vector-effect="non-scaling-stroke" id="node#13"></path><path d="M 1183.9785214559445 791.0692761479593 H 1178.844334838579 V 772.2693319515306" fill="none" stroke="black" stroke-width="2" class="treeEdge" vector-effect="non-scaling-stroke" id="node#12"></path><path d="M 1178.844334838579 772.2693319515306 H 1161.8303688577876 V 753.4509925063776" fill="none" stroke="black" stroke-width="2" class="treeEdge" vector-effect="non-scaling-stroke" id="node#11"></path><path d="M 1161.8303688577876 753.4509925063776 H 1156.293106523316 V 734.6234554368623" fill="none" stroke="black" stroke-width="2" class="treeEdge" vector-effect="non-scaling-stroke" id="node#10"></path><path d="M 1156.293106523316 734.6234554368623 H 1149.5618967792004 V 711.0821358816964" fill="none" stroke="black" stroke-width="2" class="treeEdge" vector-effect="non-scaling-stroke" id="node#9"></path><path d="M 1150.8614836456743 687.5408163265306 H 1149.5618967792004 V 711.0821358816964" fill="none" stroke="black" stroke-width="2" class="treeEdge" vector-effect="non-scaling-stroke" id="node#32"></path><path d="M 1149.5618967792004 711.0821358816964 H 1117.0119501409818 V 685.1839250837053" fill="none" stroke="black" stroke-width="2" class="treeEdge" vector-effect="non-scaling-stroke" id="node#8"></path><path d="M 1117.0119501409818 685.1839250837053 H 1088.5544423007516 V 662.816452337771" fill="none" stroke="black" stroke-width="2" class="treeEdge" vector-effect="non-scaling-stroke" id="node#7"></path><path d="M 1088.5544423007516 662.816452337771 H 1076.8819328968982 V 569.6634876484774" fill="none" stroke="black" stroke-width="2" class="treeEdge" vector-effect="non-scaling-stroke" id="node#6"></path><path d="M 1151.2205663666111 612.1938775510204 H 1148.5041307266054 V 593.3571428571429" fill="none" stroke="black" stroke-width="2" class="treeEdge" vector-effect="non-scaling-stroke" id="node#41"></path><path d="M 1152.2149803947452 574.5204081632653 H 1148.5041307266054 V 593.3571428571429" fill="none" stroke="black" stroke-width="2" class="treeEdge" vector-effect="non-scaling-stroke" id="node#44"></path><path d="M 1148.5041307266054 593.3571428571429 H 1127.2624940799028 V 569.8112244897959" fill="none" stroke="black" stroke-width="2" class="treeEdge" vector-effect="non-scaling-stroke" id="node#40"></path><path d="M 1127.2624940799028 569.8112244897959 H 1116.0857586648617 V 519.7761479591836" fill="none" stroke="black" stroke-width="2" class="treeEdge" vector-effect="non-scaling-stroke" id="node#39"></path><path d="M 1128.8731441339237 518.0102040816328 H 1128.622180091424 V 503.88265306122446" fill="none" stroke="black" stroke-width="2" class="treeEdge" vector-effect="non-scaling-stroke" id="node#52"></path><path d="M 1128.622180091424 503.88265306122446 H 1120.5041535631688 V 487.4005102040817" fill="none" stroke="black" stroke-width="2" class="treeEdge" vector-effect="non-scaling-stroke" id="node#50"></path><path d="M 1120.5041535631688 487.4005102040817 H 1117.9468452674234 V 469.7410714285714" fill="none" stroke="black" stroke-width="2" class="treeEdge" vector-effect="non-scaling-stroke" id="node#49"></path><path d="M 1117.9468452674234 469.7410714285714 H 1116.0857586648617 V 519.7761479591836" fill="none" stroke="black" stroke-width="2" class="treeEdge" vector-effect="non-scaling-stroke" id="node#48"></path><path d="M 1116.0857586648617 519.7761479591836 H 1107.7441098643085 V 476.5105229591836" fill="none" stroke="black" stroke-width="2" class="treeEdge" vector-effect="non-scaling-stroke" id="node#38"></path><path d="M 1107.7441098643085 476.5105229591836 H 1076.8819328968982 V 569.6634876484774" fill="none" stroke="black" stroke-width="2" class="treeEdge" vector-effect="non-scaling-stroke" id="node#37"></path><path d="M 1076.8819328968982 569.6634876484774 H 1076.6318480109967 V 431.25792367117754" fill="none" stroke="black" stroke-width="2" class="treeEdge" vector-effect="non-scaling-stroke" id="node#5"></path><path d="M 1122.4800052680496 404.9897959183674 H 1119.531665700592 V 390.8622448979593" fill="none" stroke="black" stroke-width="2" class="treeEdge" vector-effect="non-scaling-stroke" id="node#68"></path><path d="M 1119.531665700592 390.8622448979593 H 1114.3867533727293 V 374.3801020408164" fill="none" stroke="black" stroke-width="2" class="treeEdge" vector-effect="non-scaling-stroke" id="node#66"></path><path d="M 1114.3867533727293 374.3801020408164 H 1110.7395370591614 V 352.0114795918368" fill="none" stroke="black" stroke-width="2" class="treeEdge" vector-effect="non-scaling-stroke" id="node#64"></path><path d="M 1117.1718335599162 329.6428571428572 H 1110.7395370591614 V 352.0114795918368" fill="none" stroke="black" stroke-width="2" class="treeEdge" vector-effect="non-scaling-stroke" id="node#71"></path><path d="M 1110.7395370591614 352.0114795918368 H 1100.8420448269142 V 321.99043367346945" fill="none" stroke="black" stroke-width="2" class="treeEdge" vector-effect="non-scaling-stroke" id="node#63"></path><path d="M 1112.897901673812 291.96938775510205 H 1100.8420448269142 V 321.99043367346945" fill="none" stroke="black" stroke-width="2" class="treeEdge" vector-effect="non-scaling-stroke" id="node#60"></path><path d="M 1100.8420448269142 321.99043367346945 H 1088.8708507604151 V 292.8523596938776" fill="none" stroke="black" stroke-width="2" class="treeEdge" vector-effect="non-scaling-stroke" id="node#59"></path><path d="M 1088.8708507604151 292.8523596938776 H 1076.6318480109967 V 431.25792367117754" fill="none" stroke="black" stroke-width="2" class="treeEdge" vector-effect="non-scaling-stroke" id="node#58"></path><path d="M 1076.6318480109967 431.25792367117754 H 1048.2727881266242 V 292.4475205090581" fill="none" stroke="black" stroke-width="2" class="treeEdge" vector-effect="non-scaling-stroke" id="node#4"></path><path d="M 1272.611203806315 235.45918367346934 H 1152.2161936308507 V 221.3316326530612" fill="none" stroke="black" stroke-width="2" class="treeEdge" vector-effect="non-scaling-stroke" id="node#83"></path><path d="M 1152.2161936308507 221.3316326530612 H 1145.9019502780918 V 200.14030612244898" fill="none" stroke="black" stroke-width="2" class="treeEdge" vector-effect="non-scaling-stroke" id="node#82"></path><path d="M 1152.1320055950148 178.94897959183672 H 1145.9019502780918 V 200.14030612244898" fill="none" stroke="black" stroke-width="2" class="treeEdge" vector-effect="non-scaling-stroke" id="node#79"></path><path d="M 1145.9019502780918 200.14030612244898 H 1112.2207049294113 V 175.41709183673467" fill="none" stroke="black" stroke-width="2" class="treeEdge" vector-effect="non-scaling-stroke" id="node#78"></path><path d="M 1112.2207049294113 175.41709183673467 H 1076.9187343920958 V 153.6371173469388" fill="none" stroke="black" stroke-width="2" class="treeEdge" vector-effect="non-scaling-stroke" id="node#77"></path><path d="M 1076.9187343920958 153.6371173469388 H 1048.2727881266242 V 292.4475205090581" fill="none" stroke="black" stroke-width="2" class="treeEdge" vector-effect="non-scaling-stroke" id="node#75"></path><path d="M 1048.2727881266242 292.4475205090581 H 894.9869998829821 V 202.73396433616176" fill="none" stroke="black" stroke-width="2" class="treeEdge" vector-effect="non-scaling-stroke" id="node#3"></path><path d="M 894.9869998829821 202.73396433616176 H 18.940594059405743 V 81.70553913246212" fill="none" stroke="black" stroke-width="2" class="treeEdge" vector-effect="non-scaling-stroke" id="node#2"></path><path d="M 1115.378776094917 84.76530612244898 H 1019.6701666983081 V 65.9285714285714" fill="none" stroke="black" stroke-width="2" class="treeEdge" vector-effect="non-scaling-stroke" id="node#92"></path><path d="M 1327.7488110092227 47.09183673469383 H 1019.6701666983081 V 65.9285714285714" fill="none" stroke="black" stroke-width="2" class="treeEdge" vector-effect="non-scaling-stroke" id="node#95"></path><path d="M 1019.6701666983081 65.9285714285714 H 426.4946645441055 V 42.38265306122449" fill="none" stroke="black" stroke-width="2" class="treeEdge" vector-effect="non-scaling-stroke" id="node#91"></path><path d="M 426.4946645441055 42.38265306122449 H 18.940594059405743 V 81.70553913246212" fill="none" stroke="black" stroke-width="2" class="treeEdge" vector-effect="non-scaling-stroke" id="node#89"></path><path d="M 18.940594059405743 81.70553913246212 H 0 V 81.70553913246212" fill="none" stroke="black" stroke-width="2" class="treeEdge" vector-effect="non-scaling-stroke" id="node#0"></path><text x="1254.91464305961" y="923" dominant-baseline="central" transform="matrix(1.03583, 0, 0, 1.08017, 0, 0) matrix(1, 0, 0, 1, -43.4127, -68.5075)">MN9</text><text x="1260.4549121096472" y="904.1632653061224" dominant-baseline="central" transform="matrix(1.03583, 0, 0, 1.08017, 0, 0) matrix(1, 0, 0, 1, -43.6044, -67.1094)">MN10</text><text x="1262.8844613685542" y="885.3265306122448" dominant-baseline="central" transform="matrix(1.03583, 0, 0, 1.08017, 0, 0) matrix(1, 0, 0, 1, -43.6884, -65.7113)">MN5</text><text x="1322.5308935174521" y="866.4897959183673" dominant-baseline="central" transform="matrix(1.03583, 0, 0, 1.08017, 0, 0) matrix(1, 0, 0, 1, -45.7518, -64.3132)">MN3</text><text x="1228.3860575450526" y="847.6530612244898" dominant-baseline="central" transform="matrix(1.03583, 0, 0, 1.08017, 0, 0) matrix(1, 0, 0, 1, -42.495, -62.9151)">MN1</text><text x="1210.0080976854088" y="828.8163265306123" dominant-baseline="central" transform="matrix(1.03583, 0, 0, 1.08017, 0, 0) matrix(1, 0, 0, 1, -41.8592, -61.517)">MN4</text><text x="1199.5699417284488" y="809.9795918367347" dominant-baseline="central" transform="matrix(1.03583, 0, 0, 1.08017, 0, 0) matrix(1, 0, 0, 1, -41.4981, -60.1188)">NVSL_challenge_97_11</text><text x="1199.8519224157303" y="791.1428571428572" dominant-baseline="central" transform="matrix(1.03583, 0, 0, 1.08017, 0, 0) matrix(1, 0, 0, 1, -41.5079, -58.7207)">MN11</text><text x="1190.384249844304" y="772.3061224489796" dominant-baseline="central" transform="matrix(1.03583, 0, 0, 1.08017, 0, 0) matrix(1, 0, 0, 1, -41.1803, -57.3226)">MN13</text><text x="1182.0982692395435" y="753.469387755102" dominant-baseline="central" transform="matrix(1.03583, 0, 0, 1.08017, 0, 0) matrix(1, 0, 0, 1, -40.8937, -55.9245)">MN15</text><text x="1162.0808757388559" y="734.6326530612245" dominant-baseline="central" transform="matrix(1.03583, 0, 0, 1.08017, 0, 0) matrix(1, 0, 0, 1, -40.2012, -54.5264)">MN14</text><text x="1167.0802173172017" y="715.7959183673469" dominant-baseline="central" transform="matrix(1.03583, 0, 0, 1.08017, 0, 0) matrix(1, 0, 0, 1, -40.3742, -53.1283)">PA3</text><text x="1164.1672550112523" y="696.9591836734694" dominant-baseline="central" transform="matrix(1.03583, 0, 0, 1.08017, 0, 0) matrix(1, 0, 0, 1, -40.2734, -51.7302)">MN12</text><text x="1151.1172478831995" y="678.1224489795918" dominant-baseline="central" transform="matrix(1.03583, 0, 0, 1.08017, 0, 0) matrix(1, 0, 0, 1, -39.8219, -50.3321)">PA2</text><text x="1121.180137071464" y="659.2857142857143" dominant-baseline="central" transform="matrix(1.03583, 0, 0, 1.08017, 0, 0) matrix(1, 0, 0, 1, -38.7863, -48.9339)">TSV-2_Nasal_MLV_vaccine</text><text x="1107.8418720780196" y="640.4489795918367" dominant-baseline="central" transform="matrix(1.03583, 0, 0, 1.08017, 0, 0) matrix(1, 0, 0, 1, -38.3249, -47.5358)">VR188_Los_Angeles</text><text x="1154.9657031420775" y="621.6122448979593" dominant-baseline="central" transform="matrix(1.03583, 0, 0, 1.08017, 0, 0) matrix(1, 0, 0, 1, -39.9551, -46.1377)">MN6</text><text x="1151.48397926654" y="602.7755102040817" dominant-baseline="central" transform="matrix(1.03583, 0, 0, 1.08017, 0, 0) matrix(1, 0, 0, 1, -39.8346, -44.7396)">MN8</text><text x="1157.6343302462772" y="583.9387755102041" dominant-baseline="central" transform="matrix(1.03583, 0, 0, 1.08017, 0, 0) matrix(1, 0, 0, 1, -40.0474, -43.3415)">MN7</text><text x="1158.6884214242918" y="565.1020408163265" dominant-baseline="central" transform="matrix(1.03583, 0, 0, 1.08017, 0, 0) matrix(1, 0, 0, 1, -40.0838, -41.9434)">PA1</text><text x="1318.8313673862963" y="546.2653061224489" dominant-baseline="central" transform="matrix(1.03583, 0, 0, 1.08017, 0, 0) matrix(1, 0, 0, 1, -45.6239, -40.5453)">Cooper</text><text x="1128.9946963251798" y="527.4285714285714" dominant-baseline="central" transform="matrix(1.03583, 0, 0, 1.08017, 0, 0) matrix(1, 0, 0, 1, -39.0566, -39.1472)">C45</text><text x="1130.0936244896986" y="508.5918367346938" dominant-baseline="central" transform="matrix(1.03583, 0, 0, 1.08017, 0, 0) matrix(1, 0, 0, 1, -39.0946, -37.749)">C46</text><text x="1140.7873688528646" y="489.75510204081627" dominant-baseline="central" transform="matrix(1.03583, 0, 0, 1.08017, 0, 0) matrix(1, 0, 0, 1, -39.4646, -36.3509)">C44</text><text x="1120.759583721187" y="470.9183673469388" dominant-baseline="central" transform="matrix(1.03583, 0, 0, 1.08017, 0, 0) matrix(1, 0, 0, 1, -38.7717, -34.9528)">Nasalgen_IP_MLV_vaccine</text><text x="1121.4113904230337" y="452.0816326530612" dominant-baseline="central" transform="matrix(1.03583, 0, 0, 1.08017, 0, 0) matrix(1, 0, 0, 1, -38.7943, -33.5547)">Arsenal_IBR_MLV_vaccine</text><text x="1119.3728372695753" y="433.2448979591836" dominant-baseline="central" transform="matrix(1.03583, 0, 0, 1.08017, 0, 0) matrix(1, 0, 0, 1, -38.7238, -32.1566)">Titanium_IBR_MLV_vaccine</text><text x="1139.0962408038515" y="414.4081632653062" dominant-baseline="central" transform="matrix(1.03583, 0, 0, 1.08017, 0, 0) matrix(1, 0, 0, 1, -39.4061, -30.7585)">Pyramid_IBR_MLV_vaccine</text><text x="1125.1169124021892" y="395.5714285714286" dominant-baseline="central" transform="matrix(1.03583, 0, 0, 1.08017, 0, 0) matrix(1, 0, 0, 1, -38.9225, -29.3604)">Express1_IBR_MLV_vaccine</text><text x="1130.1790609279044" y="376.734693877551" dominant-baseline="central" transform="matrix(1.03583, 0, 0, 1.08017, 0, 0) matrix(1, 0, 0, 1, -39.0976, -27.9623)">Vista_IBR_MLV_vaccine</text><text x="1122.4169345737002" y="357.89795918367344" dominant-baseline="central" transform="matrix(1.03583, 0, 0, 1.08017, 0, 0) matrix(1, 0, 0, 1, -38.8291, -26.5641)">C29</text><text x="1123.8376516362637" y="339.0612244897959" dominant-baseline="central" transform="matrix(1.03583, 0, 0, 1.08017, 0, 0) matrix(1, 0, 0, 1, -38.8782, -25.166)">BoviShield_Gold_FP5_MLV_vaccine</text><text x="1120.542484790847" y="320.22448979591843" dominant-baseline="central" transform="matrix(1.03583, 0, 0, 1.08017, 0, 0) matrix(1, 0, 0, 1, -38.7642, -23.7679)">BovSh_IBR_MLV_vaccine</text><text x="1148.6054095667089" y="301.38775510204084" dominant-baseline="central" transform="matrix(1.03583, 0, 0, 1.08017, 0, 0) matrix(1, 0, 0, 1, -39.735, -22.3698)">C18</text><text x="1147.9703771727543" y="282.55102040816325" dominant-baseline="central" transform="matrix(1.03583, 0, 0, 1.08017, 0, 0) matrix(1, 0, 0, 1, -39.7131, -20.9717)">C26</text><text x="1121.3408117313365" y="263.7142857142857" dominant-baseline="central" transform="matrix(1.03583, 0, 0, 1.08017, 0, 0) matrix(1, 0, 0, 1, -38.7918, -19.5736)">C33</text><text x="1280.8423074562204" y="244.87755102040813" dominant-baseline="central" transform="matrix(1.03583, 0, 0, 1.08017, 0, 0) matrix(1, 0, 0, 1, -44.3097, -18.1755)">C35_1839_9847</text><text x="1279.3666606894067" y="226.04081632653066" dominant-baseline="central" transform="matrix(1.03583, 0, 0, 1.08017, 0, 0) matrix(1, 0, 0, 1, -44.2586, -16.7774)">C36_876_459</text><text x="1229.0475349694789" y="207.2040816326531" dominant-baseline="central" transform="matrix(1.03583, 0, 0, 1.08017, 0, 0) matrix(1, 0, 0, 1, -42.5179, -15.3792)">C43</text><text x="1201.1888031050967" y="188.3673469387755" dominant-baseline="central" transform="matrix(1.03583, 0, 0, 1.08017, 0, 0) matrix(1, 0, 0, 1, -41.5541, -13.9811)">C28_55771</text><text x="1166.388215575689" y="169.53061224489795" dominant-baseline="central" transform="matrix(1.03583, 0, 0, 1.08017, 0, 0) matrix(1, 0, 0, 1, -40.3502, -12.583)">C42</text><text x="1132.7932506555485" y="150.69387755102036" dominant-baseline="central" transform="matrix(1.03583, 0, 0, 1.08017, 0, 0) matrix(1, 0, 0, 1, -39.188, -11.1849)">C47</text><text x="1165.1239883875915" y="131.8571428571429" dominant-baseline="central" transform="matrix(1.03583, 0, 0, 1.08017, 0, 0) matrix(1, 0, 0, 1, -40.3065, -9.78679)">C14_CSU_034_10640</text><text x="1720.6169749343505" y="113.02040816326533" dominant-baseline="central" transform="matrix(1.03583, 0, 0, 1.08017, 0, 0) matrix(1, 0, 0, 1, -59.5233, -8.38868)">216_II</text><text x="1282.7999606195199" y="94.18367346938776" dominant-baseline="central" transform="matrix(1.03583, 0, 0, 1.08017, 0, 0) matrix(1, 0, 0, 1, -44.3774, -6.99056)">SP1777</text><text x="1218.1741085807894" y="75.34693877551018" dominant-baseline="central" transform="matrix(1.03583, 0, 0, 1.08017, 0, 0) matrix(1, 0, 0, 1, -42.1417, -5.59245)">SM023</text><text x="1839.446963283236" y="56.510204081632615" dominant-baseline="central" transform="matrix(1.03583, 0, 0, 1.08017, 0, 0) matrix(1, 0, 0, 1, -63.6341, -4.19434)">K22</text><text x="1913" y="37.67346938775514" dominant-baseline="central" transform="matrix(1.03583, 0, 0, 1.08017, 0, 0) matrix(1, 0, 0, 1, -66.1786, -2.79623)">B589</text><text x="497.9226390981559" y="18.83673469387757" dominant-baseline="central" transform="matrix(1.03583, 0, 0, 1.08017, 0, 0) matrix(1, 0, 0, 1, -17.2252, -1.39811)">MN2</text><text x="1777.253790300902" y="0" dominant-baseline="central" transform="matrix(1.03583, 0, 0, 1.08017, 0, 0) matrix(1, 0, 0, 1, -61.4826, -0)">BHV5</text></svg>